<?xml version="1.0" encoding="UTF-8" standalone="no"?>
<!-- Created with Inkscape (http://www.inkscape.org/) -->

<svg
   xmlns:dc="http://purl.org/dc/elements/1.1/"
   xmlns:cc="http://creativecommons.org/ns#"
   xmlns:rdf="http://www.w3.org/1999/02/22-rdf-syntax-ns#"
   xmlns:svg="http://www.w3.org/2000/svg"
   xmlns="http://www.w3.org/2000/svg"
   xmlns:sodipodi="http://sodipodi.sourceforge.net/DTD/sodipodi-0.dtd"
   xmlns:inkscape="http://www.inkscape.org/namespaces/inkscape"
   width="210mm"
   height="297mm"
   viewBox="0 0 744.09448819 1052.3622047"
   id="svg12497"
   version="1.1"
   inkscape:version="0.91 r13725"
   sodipodi:docname="mi_2018_endurance.svg">
  <defs
     id="defs12499">
    <inkscape:path-effect
       effect="spiro"
       id="path-effect3466"
       is_visible="true" />
  </defs>
  <sodipodi:namedview
     id="base"
     pagecolor="#ffffff"
     bordercolor="#666666"
     borderopacity="1.0"
     inkscape:pageopacity="0.0"
     inkscape:pageshadow="2"
     inkscape:zoom="5.6"
     inkscape:cx="1550.7625"
     inkscape:cy="363.51872"
     inkscape:document-units="px"
     inkscape:current-layer="layer2"
     showgrid="false"
     inkscape:window-width="1920"
     inkscape:window-height="1054"
     inkscape:window-x="0"
     inkscape:window-y="0"
     inkscape:window-maximized="1" />
  <metadata
     id="metadata12502">
    <rdf:RDF>
      <cc:Work
         rdf:about="">
        <dc:format>image/svg+xml</dc:format>
        <dc:type
           rdf:resource="http://purl.org/dc/dcmitype/StillImage" />
        <dc:title />
      </cc:Work>
    </rdf:RDF>
  </metadata>
  <g
     inkscape:groupmode="layer"
     id="layer2"
     inkscape:label="Layer 2">
    <path
       style="fill:none;fill-rule:evenodd;stroke:#00ff00;stroke-width:1px;stroke-linecap:butt;stroke-linejoin:miter;stroke-opacity:1"
       d="m -436.13337,580.62096 c 3.71048,3.64928 6.48544,8.11916 9.32549,12.48024 2.84005,4.36108 5.83838,8.72175 9.86741,12.01596 4.51943,3.69517 10.143,5.86344 15.88117,6.9372 5.73817,1.07377 11.61997,1.1038 17.45387,0.89148 14.83597,-0.53995 29.81431,-2.68445 43.43656,-8.58629 8.05347,-3.48917 15.53396,-8.24704 23.73859,-11.36422 8.58395,-3.2613 18.08762,-4.64777 27.02158,-2.52538 6.89762,1.63862 13.36998,5.31814 20.45558,5.55584 4.67478,0.15683 9.25577,-1.20909 13.69747,-2.6752 4.4417,-1.46611 8.91056,-3.06043 13.57665,-3.38571 6.47828,-0.45161 12.84289,1.56698 19.04443,3.49387 6.20154,1.92688 12.63656,3.80707 19.08883,3.07212 4.29801,-0.48957 8.37533,-2.12048 12.34484,-3.83965 3.96951,-1.71917 7.92878,-3.55484 12.15137,-4.49411 8.82875,-1.96386 18.02761,0.13865 26.68188,2.76679 8.65427,2.62815 17.31009,5.82025 26.35112,6.07204 7.69091,0.21419 15.26676,-1.71772 22.67455,-3.79632 7.40779,-2.0786 14.849469,-4.33306 22.529776,-4.78998 12.383901,-0.73675 24.648916,3.27718 35.607878,9.09138 6.645051,3.52549 12.975879,7.74222 20.049582,10.30122 3.536852,1.2795 7.253726,2.1323 11.014178,2.20609 3.760451,0.0738 7.5710027,-0.6533 10.9083329,-2.38785 4.4785899,-2.32771 7.8445544,-6.28623 11.1660773,-10.08669 3.3215228,-3.80046 6.8686678,-7.64951 11.5115928,-9.62922 4.904332,-2.09117 10.57979,-1.83785 15.652312,-0.19621 5.072522,1.64165 9.626166,4.57774 13.89465,7.77235 2.715898,2.03262 5.355162,4.19066 8.295085,5.88315 2.939924,1.69249 6.243048,2.91509 9.635123,2.87647 3.683758,-0.0419 7.219294,-1.57002 10.269556,-3.63587 3.050262,-2.06585 5.694373,-4.66368 8.418265,-7.14405 5.824649,-5.30391 12.438119,-10.28865 20.203052,-11.61675 4.26581,-0.72962 8.67355,-0.30234 12.86151,0.78877 4.18795,1.0911 8.17882,2.83161 12.06132,4.7436 7.76498,3.82399 15.33144,8.41837 23.81703,10.12499 9.01762,1.81363 18.32852,0.2168 27.52665,0.25254 11.28726,0.0439 22.39886,2.55179 33.58758,4.04061 29.15838,3.87993 58.72608,0.82964 88.13581,0.25254 20.66014,-0.40541 41.45445,0.40573 61.87185,-2.77792 18.13876,-2.82835 35.93899,-8.79982 54.29569,-8.5863 7.79552,0.0907 15.59119,1.31481 22.98164,3.79666 4.52625,1.52 9.01134,3.53056 13.78433,3.65693 5.44488,0.14415 10.60238,-2.1727 15.76196,-3.91805 7.46521,-2.52529 15.58208,-3.90768 23.23351,-2.02031 3.8996,0.96191 7.54102,2.73656 11.27911,4.20585 3.73808,1.4693 7.70797,2.65339 11.71238,2.3422 3.81396,-0.29639 7.38041,-1.92325 10.85416,-3.5255 3.47374,-1.60225 7.03976,-3.22977 10.8536,-3.52763 3.87057,-0.30229 7.71648,0.79251 11.33947,2.18772 3.62299,1.39521 7.13791,3.10578 10.88389,4.12574 6.10874,1.6633 12.60544,1.41771 18.83139,0.26845 6.22595,-1.14927 12.24951,-3.17588 18.29171,-5.06667 8.45651,-2.64631 17.04467,-5.04783 25.85783,-5.96632 8.81317,-0.9185 17.91627,-0.3004 26.16503,2.93586 4.71584,1.85018 9.06195,4.51295 13.59127,6.78179 4.52931,2.26884 9.37704,4.175 14.44047,4.32988 6.04875,0.18501 11.8803,-2.134 17.3393,-4.7457 5.459,-2.6117 10.83964,-5.5866 16.75334,-6.87105 7.98317,-1.73393 16.32784,-0.24476 24.1474,2.12002 7.81955,2.36478 15.37866,5.60097 23.32977,7.47643 15.76081,3.71757 32.2826,1.92124 48.22405,-0.92372 15.94144,-2.84496 31.80529,-6.73054 47.99298,-7.1575 7.19152,-0.18968 14.54133,0.33975 21.21321,3.03045 9.73441,3.92579 17.08821,12.01499 25.75889,17.93022 6.62303,4.51831 14.22706,7.82439 22.21587,8.50166 7.9888,0.67728 16.37557,-1.46429 22.43171,-6.71813 3.42381,-2.97023 5.98564,-6.78194 8.67861,-10.42785 2.69298,-3.64591 5.64493,-7.24718 9.5558,-9.53844 4.33907,-2.54214 9.55639,-3.26316 14.57237,-2.9027 5.01598,0.36045 9.89722,1.73713 14.72205,3.15525 18.60208,5.46755 37.03638,11.6766 56.06348,15.40482 28.4366,5.57195 57.659,5.49989 86.6206,4.54569 22.2771,-0.73397 44.5599,-1.97966 66.6701,-4.79822 13.1654,-1.67829 26.2836,-3.91531 39.5389,-4.58013 13.2553,-0.66481 26.781,0.2943 39.2529,4.83266 12.7128,4.62602 23.8299,12.76608 36.113,18.43528 23.3165,10.76156 49.9873,12.19304 75.5089,9.34391 20.3636,-2.27331 40.7903,-7.14947 61.1143,-4.54568 19.1109,2.44838 36.7763,11.36104 55.5583,15.65737 13.444,3.07529 27.7034,3.71701 40.9111,-0.25254 3.5993,-1.08175 7.1295,-2.5043 10.8586,-2.97148 1.8646,-0.2336 3.7732,-0.2218 5.6055,0.19484 1.8324,0.41665 3.5886,1.251 4.9659,2.52935 1.2285,1.14017 2.1292,2.60703 2.7204,4.17534 0.5912,1.56831 0.8815,3.23817 0.9937,4.91044 0.2244,3.34454 -0.2516,6.69411 -0.298,10.04586 -0.097,6.98279 1.8054,14.15485 6.2394,19.55003 4.7626,5.79492 11.9324,9.04327 19.0734,11.33883 18.523,5.95446 38.5797,6.73904 57.675,3.00726 8.7826,-1.71637 17.3615,-4.36275 26.1362,-6.11862 8.7748,-1.75587 17.9008,-2.60561 26.6442,-0.69991 12.3287,2.68713 23.2383,10.98572 29.4754,21.95455 6.2371,10.96883 7.8128,24.41013 4.68,36.63316 -3.1328,12.22302 -10.8582,23.13996 -21.1042,30.50442 -10.2461,7.36447 -22.9089,11.19377 -35.527,11.16551 -18.3216,-0.041 -36.0553,-8.06952 -50.0026,-19.95052 -3.7128,-3.16273 -7.1957,-6.59873 -11.0569,-9.5784 -3.8612,-2.97968 -8.1738,-5.5229 -12.9342,-6.58404 -4.3289,-0.96497 -8.8311,-0.66688 -13.2458,-0.24136 -4.4147,0.42552 -8.8615,0.97374 -13.2707,0.49391 -7.365,-0.80151 -14.1781,-4.44748 -19.9505,-9.09138 -3.1139,-2.5051 -5.9757,-5.30854 -9.0468,-7.86577 -3.0712,-2.55724 -6.3975,-4.8911 -10.1462,-6.27637 -4.8127,-1.77847 -10.0744,-1.90627 -15.1962,-1.60251 -5.1218,0.30375 -10.233,1.01784 -15.3609,0.8449 -10.5665,-0.35636 -20.6947,-4.47471 -29.7994,-9.84899 -4.5653,-2.69481 -8.9371,-5.71677 -13.591,-8.2556 -4.6539,-2.53884 -9.6565,-4.6057 -14.9252,-5.19321 -3.2122,-0.35819 -6.5203,-0.14994 -9.5722,0.91436 -3.0519,1.06431 -5.8358,3.02151 -7.621,5.71593 -1.2592,1.90049 -1.9948,4.10855 -2.4215,6.34803 -0.4268,2.23948 -0.5567,4.5234 -0.6898,6.79929 -0.133,2.27589 -0.2711,4.55987 -0.7138,6.79627 -0.4426,2.23639 -1.2024,4.43796 -2.4884,6.32037 -2.2188,3.24768 -5.9109,5.3311 -9.7798,6.03977 -3.8689,0.70868 -7.8959,0.1295 -11.6102,-1.16471 -7.4284,-2.58841 -13.559,-7.85634 -20.2788,-11.94613 -14.0041,-8.52317 -30.4766,-11.86946 -46.6412,-14.60146 -16.1646,-2.73199 -32.6596,-5.06894 -47.5556,-11.91504 -11.6681,-5.3626 -22.0119,-13.37409 -30.8096,-22.72843 -7.3584,-7.82405 -13.677,-16.59055 -21.2131,-24.24367 -2.4917,-2.53044 -5.1426,-4.95672 -8.2329,-6.70661 -3.0902,-1.74989 -6.6747,-2.79279 -10.2025,-2.38476 -3.3107,0.38292 -6.4067,2.03617 -8.808,4.3473 -2.4013,2.31113 -4.138,5.25202 -5.3283,8.365 -2.3806,6.22597 -2.6196,13.02416 -3.4309,19.6402 -0.5569,4.54118 -1.3943,9.04354 -2.0045,13.57787 -0.4798,3.56537 -0.826,7.18215 -1.9743,10.59148 -0.5741,1.70466 -1.35,3.3502 -2.3994,4.81111 -1.0494,1.46091 -2.3787,2.73496 -3.9443,3.62064 -3.0699,1.73672 -6.9085,1.85444 -10.2436,0.70632 -2.5206,-0.86772 -4.7546,-2.39118 -6.9514,-3.90116 -2.1969,-1.50997 -4.424,-3.04114 -6.9381,-3.92753 -2.5208,-0.88876 -5.2452,-1.09268 -7.9109,-0.89731 -2.6658,0.19537 -5.2872,0.77939 -7.8793,1.43145 -5.1842,1.30413 -10.4721,2.90231 -15.7771,2.24379 -4.3863,-0.54448 -8.4392,-2.60271 -12.1916,-4.93835 -3.7524,-2.33564 -7.3238,-4.98915 -11.2944,-6.93095 -9.6062,-4.69789 -20.6876,-4.87248 -31.3148,-6.06092 -5.0426,-0.56391 -10.1648,-1.41028 -14.6472,-3.78807 -5.2733,-2.79735 -9.2887,-7.5143 -14.3946,-10.6066 -5.9324,-3.59281 -13.0196,-4.79672 -19.9505,-5.05076 -11.1192,-0.40756 -22.3378,1.4391 -33.3351,-0.25254 -11.3316,-1.74306 -21.75451,-7.13882 -32.82995,-10.10152 -11.80572,-3.15805 -24.15266,-3.50444 -36.3655,-3.94591 -21.67493,-0.78351 -43.34097,-1.92445 -65.02857,-2.17814 -17.56167,-0.20543 -35.16064,0.16976 -52.6542,-1.38896 -4.50755,-0.40163 -9.01595,-0.93196 -13.54105,-0.87935 -4.5251,0.0526 -9.10853,0.71066 -13.22799,2.58398 -4.12076,1.87392 -7.65851,4.9042 -11.86929,6.56599 -4.07829,1.6095 -8.55408,1.84472 -12.93779,1.92245 -4.38371,0.0777 -8.82537,0.024 -13.07364,1.10801 -4.36333,1.11338 -8.3277,3.37682 -12.32372,5.45291 -3.99602,2.07608 -8.19032,4.01792 -12.67756,4.39607 -5.41546,0.45638 -10.78281,-1.41674 -15.58059,-3.96955 -4.79778,-2.55281 -9.19955,-5.79465 -13.96637,-8.40481 -6.93089,-3.79513 -14.91721,-6.24455 -22.72843,-5.05077 -5.01693,0.76673 -9.69574,2.98689 -14.09716,5.51373 -4.40142,2.52684 -8.61712,5.38996 -13.17696,7.61826 -4.85754,2.37379 -10.11133,4.01155 -15.50073,4.44163 -5.3894,0.43009 -10.91928,-0.37772 -15.814,-2.67387 -4.79855,-2.25104 -8.82859,-5.82549 -12.81315,-9.32071 -3.98456,-3.49521 -8.07984,-7.01306 -12.94574,-9.11457 -4.85396,-2.09636 -10.3066,-2.6718 -15.54464,-1.95163 -5.23804,0.72017 -10.26346,2.70553 -14.75993,5.48716 -6.82656,4.22309 -12.54424,10.2888 -19.95052,13.38452 -4.67923,1.95585 -9.83599,2.61792 -14.90166,2.37386 -5.06566,-0.24406 -10.05565,-1.37104 -14.89784,-2.87893 -13.10008,-4.07945 -25.14321,-10.90306 -37.63833,-16.57104 -12.49513,-5.66797 -25.94274,-10.26779 -39.63834,-9.44039 -11.83207,0.71482 -23.04745,5.43561 -33.58757,10.85914 -12.62988,6.49883 -24.67531,14.09556 -37.37565,20.45559 -9.03292,4.52347 -18.52441,8.45186 -28.54351,9.7453 -10.0191,1.29344 -20.6914,-0.26191 -29.03518,-5.95723 -4.04704,-2.76244 -7.42071,-6.38979 -11.24325,-9.45537 -1.91127,-1.53278 -3.94614,-2.93121 -6.1665,-3.96679 -2.22035,-1.03559 -4.63663,-1.7019 -7.08645,-1.73013 -3.36179,-0.0388 -6.62394,1.11307 -9.68678,2.49947 -3.06285,1.38639 -6.02472,3.02707 -9.22201,4.06652 -6.50912,2.11614 -13.64595,1.60116 -20.23462,-0.25253 -6.95567,-1.95694 -13.59391,-5.37906 -20.80283,-5.87151 -6.7493,-0.46105 -13.36539,1.69076 -19.85581,3.59866 -8.07557,2.37386 -16.53192,4.4235 -24.84344,3.09359 -7.032,-1.12517 -13.46543,-4.59681 -20.36089,-6.37659 -8.09555,-2.08954 -16.64845,-1.79202 -24.89509,-0.41465 -8.24664,1.37736 -16.27379,3.8068 -24.34984,5.97049 -27.067932,7.25188 -55.079046,11.56917 -83.085049,10.60661 -18.273059,-0.62804 -36.543917,-3.52601 -53.790623,-9.59645 -6.198321,-2.18167 -12.253921,-4.76755 -18.516158,-6.75834 -6.262238,-1.99078 -12.800177,-3.38679 -19.364562,-3.09065 -10.376314,0.46811 -20.048419,5.08354 -29.454342,9.48986 -9.405922,4.40632 -19.253026,8.77415 -29.639576,8.69289 -7.31186,-0.0572 -14.39605,-2.32553 -21.54466,-3.86305 -8.2027,-1.76424 -16.5756,-2.57549 -24.92236,-3.42899 -8.53131,-0.87237 -17.06652,-1.79358 -25.50636,-3.31456 -6.85526,-1.23542 -13.65673,-2.86765 -20.59524,-3.48242 -6.16181,-0.54595 -12.36226,-0.28309 -18.54817,-0.30565 -30.81696,-0.11239 -61.95369,-7.28636 -92.17641,-1.2627 -12.10089,2.41182 -23.67452,6.88335 -35.35534,10.85914 -7.58863,2.58293 -15.29265,4.97376 -23.23858,6.0326 -7.94593,1.05883 -16.19658,0.73813 -23.73351,-1.99199 -4.40124,-1.59427 -8.47089,-3.97115 -12.73128,-5.91067 -4.26039,-1.93953 -8.86014,-3.46348 -13.53269,-3.1807 -5.33353,0.32278 -10.22673,2.95077 -14.82401,5.67395 -4.59729,2.72318 -9.23037,5.65516 -14.47042,6.70042 -5.58258,1.11358 -11.5028,-0.0627 -16.50075,-2.78772 -4.99796,-2.72502 -9.1031,-6.92772 -12.16868,-11.72433 -6.13115,-9.59323 -8.10343,-21.18975 -9.71637,-32.46004 -1.17928,-8.24016 -2.23943,-16.5383 -2.02047,-24.85954 0.21895,-8.32124 1.76577,-16.72172 5.556,-24.13287 5.25973,-10.28451 15.01558,-18.31387 26.28083,-20.86931 5.63262,-1.27771 11.57631,-1.20882 17.15589,0.28361 5.57957,1.49243 10.78172,4.41391 14.89959,8.46387 z"
       id="path3464"
       inkscape:path-effect="#path-effect3466"
       inkscape:original-d="m -436.13337,580.62096 c 9.74196,3.56337 10.45091,18.91219 19.1929,24.4962 9.6191,6.14427 21.92285,7.62604 33.33504,7.82868 14.7567,0.26203 29.43058,-3.93211 43.43656,-8.58629 8.32523,-2.76647 15.28319,-9.02562 23.73859,-11.36422 8.7191,-2.41153 18.00858,-3.30251 27.02158,-2.52538 7.03943,0.60696 13.39194,5.39144 20.45558,5.55584 9.31063,0.21669 17.96367,-5.83669 27.27412,-6.06091 12.8944,-0.31053 25.27505,7.58009 38.13326,6.56599 8.5983,-0.67813 15.89976,-7.63257 24.49621,-8.33376 17.86219,-1.45697 35.11263,9.04098 53.033,8.83883 15.33654,-0.173 29.87424,-9.06376 45.204326,-8.5863 12.244116,0.38135 23.718556,6.14048 35.607878,9.09138 13.967794,3.46678 27.991397,13.53384 41.9720929,10.11946 9.7306367,-2.37642 12.9301549,-17.4097 22.6776701,-19.71591 9.89444,-2.34097 20.005314,4.06373 29.546962,7.57614 6.242334,2.29789 11.282297,8.98833 17.930208,8.75962 7.187111,-0.24727 12.456064,-7.19092 18.687821,-10.77992 6.731671,-3.87691 12.477989,-10.7987 20.203052,-11.61675 16.96946,-1.79698 31.89348,12.93866 48.73986,15.65736 9.05873,1.46191 18.36976,-0.33844 27.52665,0.25254 11.25317,0.72627 22.33217,3.34984 33.58758,4.04061 29.32355,1.79965 58.76356,0.86948 88.13581,0.25254 20.64017,-0.43353 41.33203,-0.69934 61.87185,-2.77792 18.23036,-1.84487 35.97233,-8.64937 54.29569,-8.5863 7.76433,0.0267 15.39031,2.16653 22.98164,3.79666 4.64777,0.99804 9.03075,3.61965 13.78433,3.65693 5.41371,0.0425 10.42178,-3.0278 15.76196,-3.91805 7.66791,-1.2783 15.4951,-2.76048 23.23351,-2.02031 7.93238,0.75873 15.02424,6.69424 22.99149,6.54805 7.607,-0.13959 14.10081,-6.91104 21.70776,-7.05313 7.69958,-0.14382 14.54359,5.74312 22.22336,6.31346 12.44303,0.92409 24.70014,-3.635 37.1231,-4.79822 17.2947,-1.61939 34.87328,-5.79109 52.02286,-3.03046 9.9235,1.59742 17.98351,10.86547 28.03174,11.11167 12.00222,0.29407 22.11177,-10.84314 34.09264,-11.61675 16.11222,-1.04037 31.35838,8.66336 47.47717,9.59645 32.13148,1.86004 64.04534,-9.01613 96.21703,-8.08122 7.13984,0.20748 14.56671,0.41426 21.21321,3.03045 9.73466,3.83174 11.24802,15.83826 25.75889,17.93022 19.09052,2.57963 30.90233,7.52036 44.64758,1.78353 8.31784,-3.4716 9.97192,-16.36492 18.23441,-19.96629 8.95178,-3.90181 19.62261,-1.09453 29.29442,0.25255 19.19518,2.67349 36.93148,12.31155 56.06348,15.40482 28.5426,4.61478 57.7087,4.82637 86.6206,4.54569 22.2798,-0.2163 44.4024,-4.03368 66.6701,-4.79822 26.2486,-0.90122 53.2656,-5.92937 78.7918,0.25253 13.1357,3.1812 23.1915,14.47268 36.113,18.43528 24.2471,7.43577 50.1549,8.72418 75.5089,9.34391 20.4216,0.49917 40.7891,-6.58963 61.1143,-4.54568 19.1442,1.92519 36.4906,13.08184 55.5583,15.65737 13.5146,1.82546 27.2743,-0.13177 40.9111,-0.25254 7.1435,-0.0633 17.3975,-17.97797 21.43,-0.24729 1.4418,6.76985 1.8585,12.8436 3.4161,19.13164 1.6447,6.63985 1.9825,14.19546 6.2394,19.55003 4.6029,5.7897 11.9948,9.19389 19.0734,11.33883 18.4238,5.58278 38.4379,3.74229 57.675,3.00726 17.7267,-0.67732 40.827,-19.92627 52.7804,-6.81853 23.0775,25.30616 7.8182,84.28112 -22.4758,100.25764 -15.8731,8.3712 -34.1373,-11.56462 -50.0026,-19.95052 -8.5249,-4.50598 -14.7558,-13.38981 -23.9911,-16.16244 -8.4659,-2.54166 -17.8697,2.08678 -26.5165,0.25255 -7.149,-1.5165 -13.6498,-5.38868 -19.9505,-9.09138 -6.8514,-4.02633 -11.6747,-11.56772 -19.193,-14.14214 -9.6394,-3.30072 -20.5186,0.98622 -30.5571,-0.75761 -10.3072,-1.79051 -20.0839,-5.96908 -29.7994,-9.84899 -9.76,-3.89767 -18.0136,-13.06726 -28.5162,-13.44881 -6.1384,-0.223 -13.1461,2.00962 -17.1932,6.63029 -5.9325,6.77331 7.0328,21.83733 -6.3135,26.26396 -13.4654,4.14243 -27.924,-3.97946 -41.6688,-7.07107 -31.8242,-7.15821 -64.8961,-12.18175 -94.1968,-26.5165 -11.4636,-5.60833 -21.4179,-14.08764 -30.8096,-22.72843 -7.9023,-7.27044 -12.6977,-17.70198 -21.2131,-24.24367 -5.4335,-4.17412 -11.9053,-11.16588 -18.4354,-9.09137 -11.6954,3.71543 -13.6836,20.71181 -17.5672,32.3525 -1.4479,4.33986 -0.7429,9.18026 -2.0045,13.57787 -1.9085,6.6524 -2.6602,15.03749 -8.318,19.02323 -2.7981,1.97113 -6.9051,1.46061 -10.2436,0.70632 -5.184,-1.17125 -8.6947,-6.70656 -13.8895,-7.82869 -10.325,-2.23029 -21.1945,4.77373 -31.5673,2.77793 -8.6136,-1.65732 -15.1864,-9.03055 -23.486,-11.8693 -10.0598,-3.44082 -20.944,-3.71861 -31.3148,-6.06092 -4.9191,-1.11102 -10.0932,-1.62157 -14.6472,-3.78807 -5.3821,-2.56047 -9.006,-8.05992 -14.3946,-10.6066 -6.2022,-2.93119 -13.1464,-4.17668 -19.9505,-5.05076 -11.0214,-1.41587 -22.353,1.44138 -33.3351,-0.25254 -11.3158,-1.74539 -21.6161,-7.78991 -32.82995,-10.10152 -11.9419,-2.46169 -24.20305,-3.08357 -36.3655,-3.94591 -21.63404,-1.53389 -43.34994,-1.52915 -65.02857,-2.17814 -17.54964,-0.52538 -35.09973,-1.71569 -52.6542,-1.38896 -8.93954,0.16639 -18.18722,-0.80443 -26.76904,1.70463 -4.33978,1.26882 -7.56423,5.18394 -11.86929,6.56599 -8.31134,2.66818 -17.54431,0.90785 -26.01143,3.03046 -8.68825,2.17804 -16.04469,9.94455 -25.00128,9.84898 -10.67724,-0.11393 -19.37043,-9.141 -29.54696,-12.37436 -7.39659,-2.35009 -15.01876,-5.94152 -22.72843,-5.05077 -10.02362,1.1581 -17.50392,10.61061 -27.27412,13.13199 -10.1232,2.61247 -21.27397,4.68105 -31.31473,1.76776 -10.14051,-2.94223 -15.53502,-15.79726 -25.75889,-18.43528 -9.84751,-2.5409 -20.76348,0.0145 -30.30457,3.53553 -7.51286,2.7725 -12.26993,11.11773 -19.95052,13.38452 -9.52828,2.81211 -20.00949,1.1837 -29.7995,-0.50507 -26.78343,-4.62012 -50.09817,-25.84852 -77.27667,-26.01143 -11.76625,-0.0705 -22.78104,6.2042 -33.58757,10.85914 -13.04373,5.61863 -23.73912,16.48661 -37.37565,20.45559 -18.46805,5.37522 -38.91464,8.43724 -57.57869,3.78807 -9.31655,-2.32073 -14.95284,-14.09955 -24.4962,-15.15229 -6.63189,-0.73157 -12.32282,5.49727 -18.90879,6.56599 -6.6583,1.08046 -13.55883,0.71402 -20.23462,-0.25253 -7.13083,-1.03243 -13.60591,-5.52653 -20.80283,-5.87151 -6.71871,-0.32206 -13.20652,2.5829 -19.85581,3.59866 -8.2494,1.26019 -16.53197,3.84204 -24.84344,3.09359 -7.08335,-0.63786 -13.28134,-5.69787 -20.36089,-6.37659 -16.44372,-1.57647 -32.84394,3.58389 -49.24493,5.55584 -27.720133,3.33289 -55.173848,11.29858 -83.085049,10.60661 -18.207718,-0.4514 -35.9984246,-5.70255 -53.790623,-9.59645 -12.745061,-2.78931 -24.837178,-10.13685 -37.88072,-9.84899 -20.604322,0.45472 -38.522335,16.93582 -59.093918,18.18275 -7.28272,0.44144 -14.3384,-2.72173 -21.54466,-3.86305 -8.28248,-1.31177 -16.61068,-2.31716 -24.92236,-3.42899 -8.49792,-1.13674 -17.02694,-2.0472 -25.50636,-3.31456 -6.88604,-1.02921 -13.66215,-2.84284 -20.59524,-3.48242 -6.15742,-0.56803 -12.36531,-0.21236 -18.54817,-0.30565 -30.72486,-0.4636 -61.75799,-5.61603 -92.17641,-1.2627 -12.20412,1.74659 -23.25318,8.50776 -35.35534,10.85914 -15.4267,2.99732 -31.37702,5.97989 -46.97209,4.04061 -9.19351,-1.14323 -17.00476,-9.39905 -26.26397,-9.09137 -10.59441,0.35204 -19.00557,14.92483 -29.29443,12.37437 -19.62657,-4.86514 -32.28377,-27.6942 -38.3858,-46.97209 -4.94101,-15.60995 -7.24819,-36.67188 3.53553,-48.99241 13.08067,-14.94482 39.6841,-18.94435 58.33631,-12.12183 z"
       inkscape:connector-curvature="0"
       sodipodi:nodetypes="aaaaaaaaaaaaaaaaaaaaaaaaaaaaaaaaaaaaaaacaaaaaaaaaaaacaaaaaaaaaaaaaaacaaaaaaaaaaaaaaaaaaaaaaaaaaaaaaaaaaaaaaaaaaaaaaaaaaaaaaaaaaaaaa" />
  </g>
</svg>
