<?xml version="1.0" encoding="UTF-8" standalone="no"?>
<!-- Created with Inkscape (http://www.inkscape.org/) -->

<svg
   xmlns:dc="http://purl.org/dc/elements/1.1/"
   xmlns:cc="http://creativecommons.org/ns#"
   xmlns:rdf="http://www.w3.org/1999/02/22-rdf-syntax-ns#"
   xmlns:svg="http://www.w3.org/2000/svg"
   xmlns="http://www.w3.org/2000/svg"
   xmlns:sodipodi="http://sodipodi.sourceforge.net/DTD/sodipodi-0.dtd"
   xmlns:inkscape="http://www.inkscape.org/namespaces/inkscape"
   width="744.09448"
   height="1052.3622"
   viewBox="0 0 744.09449 1052.3622"
   id="svg4977"
   version="1.1"
   inkscape:version="0.91 r13725"
   sodipodi:docname="mi_2018_autox.svg">
  <defs
     id="defs4979">
    <inkscape:path-effect
       effect="spiro"
       id="path-effect3392"
       is_visible="true" />
    <inkscape:path-effect
       effect="spiro"
       id="path-effect3392-3"
       is_visible="true" />
  </defs>
  <sodipodi:namedview
     id="base"
     pagecolor="#ffffff"
     bordercolor="#666666"
     borderopacity="1.0"
     inkscape:pageopacity="0.0"
     inkscape:pageshadow="2"
     inkscape:zoom="3.959798"
     inkscape:cx="1607.0372"
     inkscape:cy="510.2726"
     inkscape:document-units="px"
     inkscape:current-layer="layer1"
     showgrid="false"
     units="px"
     inkscape:window-width="1920"
     inkscape:window-height="1054"
     inkscape:window-x="0"
     inkscape:window-y="0"
     inkscape:window-maximized="1" />
  <metadata
     id="metadata4982">
    <rdf:RDF>
      <cc:Work
         rdf:about="">
        <dc:format>image/svg+xml</dc:format>
        <dc:type
           rdf:resource="http://purl.org/dc/dcmitype/StillImage" />
        <dc:title />
      </cc:Work>
    </rdf:RDF>
  </metadata>
  <g
     inkscape:groupmode="layer"
     id="layer1"
     inkscape:label="Layer 3">
    <path
       style="fill:none;fill-rule:evenodd;stroke:#00ff00;stroke-width:1px;stroke-linecap:butt;stroke-linejoin:miter;stroke-opacity:1"
       d="m 403.68309,513.68056 c 21.32523,2.61037 43.34726,-0.72688 62.94162,-9.53826 3.86972,-1.74017 7.65267,-3.69117 11.64109,-5.13872 3.98842,-1.44755 8.24032,-2.38631 12.46605,-2.00413 5.68859,0.51449 10.87043,3.35179 16.33927,4.99999 8.49456,2.56009 17.59377,2.21641 26.39343,1.08607 8.79966,-1.13033 17.51511,-3.02329 26.37443,-3.49678 10.17886,-0.54401 20.40868,0.80412 30.26787,3.39286 9.25301,2.42958 18.24489,5.96546 26.46279,10.86313 3.6779,2.19194 7.21937,4.66455 11.17303,6.30777 1.97682,0.82162 4.0533,1.43038 6.18228,1.65472 2.12899,0.22434 4.31417,0.0565 6.34034,-0.63454 2.2725,-0.77505 4.2919,-2.18871 5.99192,-3.88426 1.70002,-1.69555 3.09696,-3.67074 4.36352,-5.71055 2.5331,-4.07961 4.62017,-8.51265 7.95127,-11.97149 2.12103,-2.20236 4.71677,-3.95503 7.57621,-5.03798 2.85944,-1.08295 5.98068,-1.48937 9.01466,-1.10974 3.83796,0.48023 7.43874,2.19049 10.61823,4.39308 3.17949,2.20258 5.98357,4.89496 8.77924,7.56793 2.72244,2.60295 5.48126,5.22233 8.71813,7.14839 3.23688,1.92606 7.03851,3.12653 10.77226,2.63037 2.9326,-0.3897 5.65957,-1.80366 7.96735,-3.65466 2.30777,-1.85099 4.23269,-4.13076 6.05007,-6.4651 1.81738,-2.33434 3.54714,-4.74362 5.53943,-6.93058 1.99229,-2.18696 4.27415,-4.16356 6.94569,-5.43434 4.35107,-2.06968 9.43436,-2.11481 14.1568,-1.15879 4.72244,0.95601 9.19332,2.84805 13.70034,4.55164 15.9023,6.01084 32.58132,9.76774 49.37501,12.41071 18.75476,2.9516 37.70499,4.53401 56.67059,5.40528 13.08623,0.60118 26.46077,0.82943 38.97761,-3.03572 8.61708,-2.66092 16.52267,-7.17229 24.43364,-11.50254 5.27027,-2.8848 10.61555,-5.7204 16.35018,-7.51255 5.73463,-1.79215 11.93512,-2.50012 17.76966,-1.0663 4.37205,1.07442 8.38279,3.30629 12.05393,5.91241 3.67115,2.60613 7.04878,5.59855 10.57174,8.40176 4.46165,3.55013 9.28433,6.85897 14.78513,8.35914 6.2158,1.69515 12.7956,0.95879 19.2168,0.43098 25.3008,-2.07968 51.2781,-0.78773 75.4676,-8.4899 5.0791,-1.61724 10.0374,-3.62136 15.1891,-4.98967 5.1518,-1.3683 10.5841,-2.0884 15.8179,-1.07868 4.4483,0.85818 8.5545,2.91971 12.7284,4.68111 4.1739,1.7614 8.6258,3.26131 13.1413,2.89504 3.8085,-0.30893 7.3746,-1.92222 10.8275,-3.55866 3.4529,-1.63645 6.9559,-3.34323 10.7416,-3.86212 5.2621,-0.72126 10.5513,0.91927 15.4868,2.88179 4.9355,1.96252 9.8113,4.29089 15.069,5.04406 7.1247,1.02062 14.3056,-0.93285 21.2194,-2.93328 15.982,-4.62419 32.3616,-9.656 48.9285,-8.12501 9.1566,0.84618 18.0293,3.68818 26.4908,7.28862 4.3235,1.8397 8.5745,3.88633 13.0623,5.27824 4.4877,1.3919 9.286,2.11201 13.8995,1.2215 4.625,-0.89273 8.7858,-3.33577 12.7735,-5.84304 3.9876,-2.50727 7.9762,-5.1527 12.4803,-6.53133 4.017,-1.22953 8.3105,-1.39663 12.4786,-0.87241 4.1681,0.52422 8.2257,1.72384 12.1663,3.17982 7.8811,2.91194 15.4123,6.87598 23.5899,8.80427 8.7533,2.06406 17.9171,1.70638 26.8156,0.40319 8.8984,-1.30318 17.6328,-3.53217 26.4699,-5.20141 11.8536,-2.23901 23.8709,-3.46721 35.8604,-4.79823 4.099,-0.45505 8.2229,-0.92311 12.3381,-0.65151 4.1152,0.27161 8.2663,1.32851 11.653,3.68197 3.048,2.11806 5.3144,5.1559 7.5037,8.15312 2.1894,2.99722 4.4077,6.06048 7.3961,8.26187 3.3379,2.45888 7.4511,3.68659 11.5681,4.17477 4.117,0.48817 8.2803,0.27986 12.423,0.11837 8.2452,-0.32142 16.4999,-0.45444 24.7488,-0.25254 4.11,0.1006 8.2749,0.27926 12.282,-0.63992 2.0035,-0.45959 3.9554,-1.19697 5.6879,-2.30324 1.7325,-1.10627 3.2418,-2.59101 4.2534,-4.38045 1.1249,-1.98981 1.6045,-4.29155 1.7182,-6.57451 0.1136,-2.28295 -0.1226,-4.56706 -0.3461,-6.84189 -0.2235,-2.27482 -0.4349,-4.56333 -0.2716,-6.84327 0.1632,-2.27995 0.7195,-4.57034 1.9299,-6.50937 1.5845,-2.53844 4.2245,-4.32504 7.0919,-5.18079 2.8674,-0.85576 5.9481,-0.82992 8.8871,-0.26732 5.878,1.1252 11.126,4.28823 16.5985,6.7108 10.9011,4.8257 22.9289,6.76159 34.8502,6.81854 4.1363,0.0198 8.2762,-0.18068 12.4069,0.0336 4.1308,0.21429 8.2892,0.85818 12.0893,2.49176 5.3237,2.28858 9.6366,6.36752 13.8862,10.30721 4.2495,3.9397 8.7016,7.91034 14.1456,9.89585 4.7386,1.72824 9.9038,1.82719 14.9446,1.64873 5.0408,-0.17846 10.1168,-0.61247 15.1074,0.11903 10.1775,1.49176 19.3978,8.01734 24.5922,16.89576 5.1943,8.87842 6.397,19.89954 3.6921,29.8238 -3.2019,11.74758 -11.9499,21.9406 -23.2335,26.5165 -5.1375,2.08345 -10.7504,3.0298 -16.2773,2.59713 -5.527,-0.43267 -10.9578,-2.25805 -15.5425,-5.37505 -2.7736,-1.88568 -5.2132,-4.21395 -7.8287,-6.31345 -9.0319,-7.25014 -20.0575,-11.672 -31.3148,-14.39467 -24.548,-5.93714 -50.6752,-4.09326 -74.7513,3.53553 -5.5351,1.75386 -11.1138,3.83046 -16.92,3.78807 -5.2172,-0.0381 -10.2471,-1.78788 -15.2189,-3.36932 -4.9719,-1.58144 -10.1543,-3.02856 -15.3382,-2.43905 -5.2623,0.59842 -10.0456,3.23924 -14.6185,5.91095 -4.573,2.67172 -9.2199,5.47652 -14.4234,6.46341 -5.0763,0.96277 -10.3346,0.11592 -15.3037,-1.29953 -4.9692,-1.41544 -9.766,-3.39328 -14.7484,-4.76138 -12.4927,-3.43034 -25.7202,-2.91998 -38.6011,-1.53511 -12.8808,1.38487 -25.7205,3.61981 -38.6755,3.55541 -11.2577,-0.056 -22.4683,-1.85649 -33.335,-4.79822 -10.006,-2.70874 -19.749,-6.38311 -29.867,-8.63777 -10.118,-2.25467 -20.8464,-3.03557 -30.7422,0.0515 -7.5947,2.3692 -14.3084,6.88053 -21.4657,10.35406 -7.9632,3.86465 -16.6554,6.47597 -25.5064,6.566 -13.0792,0.13304 -25.5188,-5.15714 -37.6282,-10.10153 -11.8093,-4.82186 -24.1205,-9.47434 -36.8705,-9.09137 -15.9011,0.47762 -30.3662,8.6586 -45.2043,14.39467 -28.5995,11.0559 -59.7683,13.24174 -90.4087,14.39468 -43.9747,1.65469 -88.82838,1.30857 -130.81475,-11.8693 -7.90692,-2.48167 -16.00586,-5.44943 -24.24366,-4.54569 -8.72953,0.95769 -16.43383,6.15233 -25.00128,8.08123 -3.7197,0.83746 -7.58995,1.0458 -11.36422,0.50507 -6.09843,-0.87371 -11.74414,-3.64575 -17.67767,-5.3033 -7.73944,-2.16204 -16.14417,-2.3739 -23.73858,0.25254 -2.73434,0.94564 -5.33262,2.24202 -8.01684,3.32173 -2.68423,1.07971 -5.50506,1.95087 -8.39814,1.98157 -3.17953,0.0337 -6.28644,-0.94921 -9.21319,-2.19207 -2.92675,-1.24286 -5.73873,-2.75511 -8.71701,-3.86884 -9.34769,-3.49556 -19.73929,-2.85614 -29.54697,-1.01016 -23.26768,4.37939 -45.14375,15.20369 -68.69037,17.67768 -13.16403,1.38311 -26.44018,0.10562 -39.64849,-0.75762 -44.8111,-2.92865 -89.934,-1.06267 -134.35029,5.55584"
       id="path3390"
       inkscape:path-effect="#path-effect3392-3"
       inkscape:original-d="m 403.68309,513.68056 c 48.92857,-5.71429 66.42117,-13.75012 62.94162,-9.53826 -77.53692,93.85565 10.53571,-11.78571 24.10714,-7.14285 13.57142,4.64286 0.26785,5.71428 16.33927,4.99999 16.07143,-0.71428 34.19643,-2.41071 52.76786,-2.41071 18.57143,0 20.32602,1.33559 30.26787,3.39286 9.03381,1.86937 17.7474,6.82921 26.46279,10.86313 8.71539,4.03393 14.65465,9.16224 23.69565,7.32795 6.97181,-1.41447 13.83669,-14.93979 18.30671,-21.5663 3.75062,-5.56004 9.7165,-7.14413 16.59087,-6.14772 6.07142,1.07143 12.5373,6.76121 19.39747,11.96101 6.86018,5.1998 11.8418,10.66723 19.49039,9.77876 11.38993,-1.32308 12.05238,-9.24979 26.50254,-22.48468 5.35714,-4.64286 18.21429,-2.32144 27.85714,3.39285 9.64286,5.71428 40.08929,9.91071 49.37501,12.41071 4.64285,1.25 33.83577,6.76689 56.67059,5.40528 22.83482,-1.36161 34.51332,-3.03572 38.97761,-3.03572 8.92857,0 2.64793,-9.00254 24.43364,-11.50254 21.78572,-2.5 11.26269,-21.79314 34.11984,-8.57885 22.85714,13.21429 -2.73152,12.52846 22.62567,14.31417 25.35713,1.78571 4.9397,-9.98087 14.78513,8.35914 4.7071,8.7685 3.3601,3.2597 19.2168,0.43098 15.8568,-2.82873 64.5747,-7.77561 75.4676,-8.4899 21.7857,-1.42858 23.507,-8.56835 31.007,-6.06835 7.5,2.5 11.584,9.00472 25.8697,7.57615 14.2858,-1.42857 11.5691,-7.42078 21.5691,-7.42078 10,0 25.1986,5.42585 30.5558,7.92585 5.3571,2.5 15.8622,-2.93328 21.2194,-2.93328 5.3571,0 39.9999,-7.41072 48.9285,-8.12501 8.9286,-0.71428 17.3595,6.58392 26.4908,7.28862 18.5661,1.43284 -237.8451,132.80447 26.9618,6.49974 11.2454,-5.36373 6.0609,-16.92005 25.2538,-12.37437 19.1929,4.54569 26.5165,7.07107 48.2348,11.11168 21.7182,4.04061 27.7791,-2.27284 53.2855,-4.79822 25.5063,-2.52539 21.7182,-4.54569 35.8604,-4.79823 14.1421,-0.25253 10.1016,-4.29315 23.9911,3.03046 13.8896,7.3236 -2.7778,10.60661 14.8998,16.41499 17.6777,5.80837 -1.2627,4.0406 23.9911,4.29314 25.2538,0.25253 10.3541,3.03046 24.7488,-0.25254 14.3946,-3.28299 17.3032,-1.27155 22.2233,-7.32361 5.6646,-6.96795 -3.7817,-20.91785 3.0304,-26.76904 8.2437,-7.08093 20.0698,1.15134 32.5775,1.26269 12.8794,0 23.9911,4.04062 34.8502,6.81854 10.8592,2.77792 19.4454,-0.50508 24.4962,2.52537 5.0508,3.03046 4.2932,18.18275 28.0318,20.20306 23.7385,2.0203 27.5266,-3.78808 30.052,1.76776 2.5254,5.55584 41.4163,23.23351 28.2843,46.71956 -13.132,23.48604 -9.0914,25.75889 -23.2335,26.5165 -14.1422,0.75762 -27.2741,1.01015 -31.8198,-2.77792 -4.5457,-3.78808 -1.7678,-5.3033 -7.8287,-6.31345 -6.0609,-1.01015 -38.2427,-14.09449 -31.3148,-14.39467 87.6248,-3.79677 -68.9429,0.50507 -74.7513,3.53553 -5.8083,3.03042 -12.1218,3.78807 -16.92,3.78807 -4.7982,0 -29.7995,-6.81853 -30.5571,-5.80837 -0.7576,1.01015 -22.7285,12.37436 -29.0419,12.37436 -6.3135,0 -19.8712,-5.17871 -30.0521,-6.06091 -25.6715,-2.22449 -52.5279,5.3033 -77.2766,2.0203 -24.7487,-3.28299 -1.0101,9.34391 -33.335,-4.79822 -32.3249,-14.14214 -43.184,-12.87945 -60.6092,-8.5863 -17.4251,4.29315 2.0203,3.78807 -21.4657,10.35406 -23.4861,6.566 6.3134,10.35407 -25.5064,6.566 -31.8198,-3.78808 -16.1624,-3.03046 -37.6282,-10.10153 -21.4657,-7.07107 -15.6573,-9.84899 -36.8705,-9.09137 -21.2132,0.75761 -15.4048,9.59645 -45.2043,14.39467 -29.7995,4.79823 -53.2856,21.2132 -90.4087,14.39468 -37.1231,-6.81853 -103.28811,-3.78808 -130.81475,-11.8693 -27.52666,-8.08122 -7.32361,-5.05076 -24.24366,-4.54569 -16.92006,0.50508 -15.40483,3.78808 -25.00128,8.08123 -9.59645,4.29314 0.75761,1.51523 -11.36422,0.50507 -12.12183,-1.01015 -7.3236,0.25254 -17.67767,-5.3033 -10.35406,-5.55584 -7.57614,-5.55584 -23.73858,0.25254 -16.16244,5.80838 -9.09137,10.85914 -16.41498,5.3033 -7.32361,-5.55584 -0.25253,-3.03046 -17.9302,-6.06091 -17.67767,-3.03046 9.59644,-12.87945 -29.54697,-1.01016 -39.14341,11.8693 -43.94163,14.64722 -68.69037,17.67768 -24.74874,3.03045 -12.62691,-1.01016 -39.64849,-0.75762 -27.02158,0.25254 -134.35029,5.55584 -134.35029,5.55584"
       inkscape:connector-curvature="0"
       sodipodi:nodetypes="csssssssscsscssssssssssssssssssssssssssaacsssssssssssssassssssssssssssssssssc" />
  </g>
</svg>
