<?xml version="1.0" encoding="UTF-8" standalone="no"?>
<!-- Created with Inkscape (http://www.inkscape.org/) -->

<svg
   xmlns:dc="http://purl.org/dc/elements/1.1/"
   xmlns:cc="http://creativecommons.org/ns#"
   xmlns:rdf="http://www.w3.org/1999/02/22-rdf-syntax-ns#"
   xmlns:svg="http://www.w3.org/2000/svg"
   xmlns="http://www.w3.org/2000/svg"
   xmlns:xlink="http://www.w3.org/1999/xlink"
   xmlns:sodipodi="http://sodipodi.sourceforge.net/DTD/sodipodi-0.dtd"
   xmlns:inkscape="http://www.inkscape.org/namespaces/inkscape"
   width="744.09448"
   height="1052.3622"
   viewBox="0 0 744.09449 1052.3622"
   id="svg4235"
   version="1.1"
   inkscape:version="0.91 r13725"
   sodipodi:docname="ne_2015_endurance.svg">
  <defs
     id="defs4237">
    <inkscape:path-effect
       effect="spiro"
       id="path-effect3338"
       is_visible="true" />
  </defs>
  <sodipodi:namedview
     id="base"
     pagecolor="#ffffff"
     bordercolor="#666666"
     borderopacity="1.0"
     inkscape:pageopacity="0.0"
     inkscape:pageshadow="2"
     inkscape:zoom="0.7"
     inkscape:cx="197.42908"
     inkscape:cy="538.2252"
     inkscape:document-units="px"
     inkscape:current-layer="layer2"
     showgrid="false"
     units="px"
     inkscape:window-width="1920"
     inkscape:window-height="1054"
     inkscape:window-x="0"
     inkscape:window-y="0"
     inkscape:window-maximized="1" />
  <metadata
     id="metadata4240">
    <rdf:RDF>
      <cc:Work
         rdf:about="">
        <dc:format>image/svg+xml</dc:format>
        <dc:type
           rdf:resource="http://purl.org/dc/dcmitype/StillImage" />
        <dc:title />
      </cc:Work>
    </rdf:RDF>
  </metadata>
  <g
     inkscape:label="Layer 1"
     inkscape:groupmode="layer"
     id="layer1"
     sodipodi:insensitive="true">
    <image
       sodipodi:absref="/home/hughest1/Downloads/FSAE_Lincoln_Endurance.jpg"
       xlink:href="/home/hughest1/Downloads/FSAE_Lincoln_Endurance.jpg"
       width="824"
       height="1107.7902"
       preserveAspectRatio="none"
       id="image4305"
       x="-131.94284"
       y="-212.24652" />
  </g>
  <g
     inkscape:groupmode="layer"
     id="layer2"
     inkscape:label="Layer 2">
    <path
       style="fill:none;fill-rule:evenodd;stroke:#000000;stroke-width:1px;stroke-linecap:butt;stroke-linejoin:miter;stroke-opacity:1"
       d="m 382.57733,336.81268 c -1.22369,10.89427 -2.77375,21.83981 -2.0143,32.77625 0.75944,10.93644 4.05203,22.05753 11.37616,30.21471 5.5002,6.12579 12.96416,10.23557 20.77377,12.84086 7.80961,2.60529 16.01115,3.79772 24.17802,4.83681 12.71895,1.61826 25.7274,2.95946 37.41589,8.22915 9.49252,4.27965 17.69744,10.98185 25.15336,18.25045 7.45592,7.26861 14.27642,15.16888 21.76797,22.40075 13.95176,13.46816 30.45248,24.89223 40.41662,41.5283 6.79477,11.34451 10.13644,24.76863 9.19833,37.95903 -0.93812,13.19041 -6.19211,26.07739 -14.93553,35.99804 -8.74343,9.92065 -20.95379,16.77972 -34.01647,18.8372 -13.06268,2.05748 -26.87756,-0.75454 -37.96258,-7.9649 -8.81978,-5.73691 -15.69366,-13.949 -22.39743,-22.05826 -6.70378,-8.10926 -13.50954,-16.36357 -22.24542,-22.22746 -11.84415,-7.95029 -26.45018,-10.9101 -40.71429,-11.07143 -6.52458,-0.0738 -13.05132,0.39957 -19.57176,0.15592 -6.52045,-0.24365 -13.12691,-1.24085 -18.99967,-4.08449 -5.98118,-2.89614 -10.94324,-7.59065 -15.02671,-12.83349 -4.08348,-5.24284 -7.35998,-11.05704 -10.68757,-16.80937 -4.32797,-7.48166 -8.84725,-14.99837 -15.0963,-20.96964 -3.12452,-2.98563 -6.67108,-5.55976 -10.59813,-7.3639 -3.92705,-1.80414 -8.24412,-2.82395 -12.56406,-2.70233 -5.09919,0.14356 -10.02341,1.84999 -14.71837,3.8449 -4.69496,1.99492 -9.27771,4.30397 -14.166,5.7624 -3.95646,1.18042 -8.10759,1.78993 -12.22722,1.51483 -4.11962,-0.27509 -8.20883,-1.4556 -11.70136,-3.65769 -4.12507,-2.60091 -7.29935,-6.55237 -9.42275,-10.94237 -2.12341,-4.39 -3.2408,-9.21225 -3.79153,-14.05762 -1.55754,-13.70343 1.30448,-27.46737 3.57143,-41.07144 8.76086,-52.57424 8.76024,-106.2927 17.14286,-158.92857 3.1874,-20.01423 7.5973,-40.25781 4.99999,-60.35714 -2.34913,-18.17876 -10.54357,-35.51027 -22.8702,-49.0764 -12.32663,-13.56612 -28.70437,-23.34406 -46.41551,-28.06645 -18.44483,-4.91801 -38.32625,-4.35614 -56.43821,1.67342 -18.11195,6.02956 -34.380709,17.51424 -46.061788,32.61228 -9.297751,12.01754 -15.710614,26.35393 -17.814287,41.40199 -2.103673,15.04806 0.192204,30.77894 7.100001,44.3123 3.792054,7.42917 8.882371,14.10302 13.400557,21.11432 4.518185,7.0113 8.541412,14.57087 9.81373,22.81426 1.085281,7.03157 0.11709,14.19838 -0.817224,21.2516 -0.934314,7.05322 -1.832569,14.23915 -0.611346,21.24839 1.149003,6.59473 4.117542,12.70733 6.904557,18.79364 2.78701,6.08632 5.46068,12.38753 5.95259,19.06351 0.39621,5.37721 -0.64546,10.75411 -1.92767,15.99123 -1.28221,5.23711 -2.81484,10.43785 -3.42948,15.79449 -1.55067,13.51437 3.15084,27.6189 12.5,37.49999 -6.4193,13.69681 -7.83653,29.67279 -3.92857,44.28572 1.87209,7.00028 4.89864,13.62658 7.5106,20.38574 2.61197,6.75916 4.83865,13.79811 4.9894,21.04283 0.22776,10.9455 -4.25809,21.36221 -8.4277,31.48497 -4.16961,10.12276 -8.17564,20.8526 -6.92944,31.72931 0.87202,7.6109 4.38308,14.87198 9.70553,20.38176 5.32245,5.50978 12.412,9.2559 19.93732,10.68967 5.64126,1.07481 11.53545,0.86889 17.05817,-0.70546 5.52273,-1.57434 10.66164,-4.52471 14.72755,-8.58025 4.84838,-4.83602 8.04035,-11.0356 11.53621,-16.92397 3.49586,-5.88837 7.56146,-11.74665 13.46379,-15.21889 6.31217,-3.71334 14.28243,-4.23325 21.21771,-1.88075 6.93529,2.35249 12.80914,7.42456 16.63943,13.66646 4.03818,6.58068 5.86544,14.34869 6.1737,22.06343 0.30827,7.71474 -0.83995,15.41787 -2.40245,22.97901 -3.12499,15.12228 -7.95096,30.32169 -6.27125,45.67185 1.07756,9.84744 4.8899,19.38065 10.89502,27.25921 6.00512,7.87856 14.18549,14.08057 23.3907,17.74079 10.50255,4.17607 22.19405,5.01557 33.34104,3.148 11.14699,-1.86756 21.76259,-6.37183 31.30181,-12.43371 9.23907,-5.87115 17.4933,-13.17424 26.63402,-19.19736 9.14072,-6.02313 19.56216,-10.83493 30.50884,-10.80264 11.57248,0.0341 22.66322,5.58844 31.08619,13.52423 8.42298,7.9358 14.42788,18.10824 19.27095,28.61862 5.73895,12.45461 10.09542,25.73417 18.21429,36.78572 10.96569,14.92667 27.94971,24.48052 45.57707,30.16627 17.62736,5.68576 36.14639,7.90183 54.42293,10.90516 3.48236,0.57225 6.9728,1.17707 10.33703,2.24304 3.36422,1.06597 6.61784,2.61311 9.30583,4.89981 3.69237,3.14113 6.17781,7.61921 7.09295,12.37976 0.91514,4.76055 0.28857,9.77547 -1.57864,14.24916 -1.86721,4.47368 -4.94817,8.4061 -8.71533,11.45712 -3.76716,3.05103 -8.20717,5.23224 -12.87041,6.55682 -7.04138,2.00009 -14.46628,2.05819 -21.78572,2.14286 -70.27875,0.81296 -140.76249,5.39127 -210.71428,-1.42857 -6.0231,-0.58721 -12.22651,-1.31707 -17.5,-4.28572 -5.25857,-2.96025 -9.0847,-7.85574 -13.07644,-12.38141 -1.99587,-2.26283 -4.07566,-4.47007 -6.44723,-6.33542 -2.37158,-1.86535 -5.0545,-3.38742 -7.97633,-4.14031 -2.93384,-0.75598 -6.03446,-0.71626 -9.01775,-0.18813 -2.98328,0.52812 -5.86283,1.53313 -8.66303,2.68975 -5.6004,2.31325 -11.01404,5.27094 -16.96208,6.42695 -5.94165,1.15477 -12.16873,0.42479 -17.87161,-1.60349 -5.70287,-2.02829 -10.90299,-5.31817 -15.52891,-9.2217 -9.25184,-7.80708 -16.17853,-17.93733 -23.74234,-27.38909 -5.65228,-7.0631 -12.00781,-14.018 -20.35714,-17.5 -6.86883,-2.86458 -14.64303,-3.12777 -21.93493,-1.63955 -7.29191,1.48821 -14.15122,4.65045 -20.56507,8.42526 -14.32997,8.43376 -26.766023,20.00947 -41.785715,27.14286 -18.567676,8.81846 -40.647697,10.14336 -60.000001,3.21428 -16.962181,-6.0733 -31.5385631,-18.28336 -41.071428,-33.57143 -10.378068,-16.64354 -14.792429,-36.63566 -14.135749,-56.23873 0.656681,-19.60307 6.205368,-38.84121 14.492891,-56.61841 3.614447,-7.75319 7.7537639,-15.2704 10.9155303,-23.21894 3.1617663,-7.94855 5.3417847,-16.4583 4.79875599,-24.99535 -0.38429399,-6.04156 -2.11380969,-11.90252 -3.59394879,-17.77255 -1.4801391,-5.87003 -2.7270896,-11.91845 -2.120337,-17.94173 0.538283,-5.34358 2.5173349,-10.44065 4.8651177,-15.27092 2.34778281,-4.83027 5.0820712,-9.47065 7.2777396,-14.37194 8.2250482,-18.3604 8.2934782,-40.24184 0,-58.57143 -3.6929767,-8.16192 -8.9051558,-15.5414 -13.0078778,-23.50524 -4.102722,-7.96384 -7.128233,-16.90371 -5.920694,-25.78047 1.061578,-7.80379 5.2616294,-14.76678 9.1864235,-21.59481 3.92479416,-6.82804 7.757455,-14.10347 7.9564339,-21.97662 0.1419645,-5.61722 -1.58739,-11.09442 -3.32095648,-16.43933 -1.73356652,-5.34491 -3.50935982,-10.79898 -3.46475772,-16.41782 0.051087,-6.43575 2.48158481,-12.58421 4.8629623,-18.56338 2.3813774,-5.97918 4.7855475,-12.14352 4.7798952,-18.57947 -0.00379,-4.32074 -1.1097945,-8.59439 -2.8400611,-12.55356 -1.7302667,-3.95917 -4.07460725,-7.62291 -6.6242147,-11.11123 -5.099215,-6.97663 -11.0849489,-13.36771 -15.1785819,-20.97807 -3.984272,-7.40705 -6.030357,-15.72978 -6.997913,-24.08458 -0.967555,-8.3548 -0.892549,-16.79057 -0.85923,-25.20114 0.221721,-55.96876 -1.460178,-111.92777 -3.571428,-167.857136 -0.436031,-11.550943 -0.888832,-23.151036 0.357142,-34.642857 0.976598,-9.007324 3.056103,-18.051737 7.610312,-25.88403 4.554209,-7.8322921 11.8254094,-14.3748949 20.60397463,-16.6159706 8.01744497,-2.0467697 16.49883837,-0.41402 24.45980237,1.842467 7.960965,2.2564871 15.852485,5.15227845 24.111626,5.6575331 5.859097,0.3584314 11.713768,-0.5015261 17.56469,-0.97501524 5.850923,-0.47348914 11.872067,-0.54075814 17.43531,1.33215804 5.55264,1.8693466 10.286624,5.5439015 14.877716,9.1837017 4.591091,3.639799 9.264261,7.37115 14.765141,9.387727 7.62401,2.794897 16.03011,2.022729 24.11071,1.22218 8.0806,-0.800548 16.49264,-1.55246 24.10358,1.27782 6.10226,2.269245 11.16757,6.66945 15.67656,11.365831 4.509,4.696381 8.63031,9.796298 13.60915,13.991312 11.68312,9.843827 27.39247,13.979286 42.66975,13.945842 15.27727,-0.03344 30.2841,-3.919025 44.83025,-8.588699 22.07413,-7.086345 43.60555,-16.073795 63.57143,-27.857143 23.46855,-13.850532 44.66764,-31.5366303 62.5,-52.142858 4.53351,-4.611181 10.62662,-7.661006 17.03493,-8.526608 6.40832,-0.865601 13.09222,0.458371 18.68665,3.701522 5.59444,3.24315 10.06482,8.385433 12.49817,14.376637 2.43336,5.991203 2.81463,12.7942958 1.06596,19.0198779 -1.62804,5.7961284 -5.03056,11.0018021 -9.27951,15.2670191 -4.24895,4.265217 -9.32738,7.63204 -14.64905,10.447267 -7.33364,3.879586 -15.17035,6.756599 -22.43697,10.760306 -7.26663,4.003707 -14.12364,9.36272 -17.92018,16.739694 -3.90592,7.589502 -4.18418,16.464989 -4.28572,25 -0.79322,66.673492 4.16921,133.352592 2.14286,200.000002 -0.57839,19.02335 -1.72682,38.03729 -3.85124,56.9505 z"
       id="path3336"
       inkscape:path-effect="#path-effect3338"
       inkscape:original-d="m 382.57733,336.81268 c 0.8491,21.21063 -3.8506,46.37643 9.36186,62.99096 10.02152,12.60196 29.54912,12.98746 44.95179,17.67767 12.21623,3.71992 26.00292,2.50042 37.41589,8.22915 18.49473,9.28341 31.87103,26.4482 46.92133,40.6512 14.04847,13.25757 40.12527,22.21412 40.41662,41.5283 0.57842,38.34467 -39.37814,83.91389 -77.71625,84.82937 -20.95486,0.50038 -26.48864,-33.80808 -44.64285,-44.28572 -12.18108,-7.03027 -26.88617,-8.50502 -40.71429,-11.07143 -12.70667,-2.35828 -27.1015,2.0264 -38.57143,-3.92857 -11.60923,-6.0273 -16.70839,-20.15621 -25.71428,-29.64286 -13.35411,-13.71956 -19.00537,-36.03092 -38.25849,-31.03587 -5.11948,1.44729 -18.91209,7.0554 -28.88437,9.6073 -4.63841,1.23096 -17.26068,2.29212 -23.92858,-2.14286 C 235.36593,474.9992 231.87033,464.45773 230,455.21933 c -2.7268,-13.46889 2.23925,-27.39402 3.57143,-41.07144 5.16539,-53.03252 12.08585,-105.8856 17.14286,-158.92857 1.91599,-20.09684 3.17504,-51.69934 4.99999,-60.35714 10.68355,-41.97278 -30.75627,-62.55775 -69.28571,-77.14285 -34.26862,-11.56827 -79.67359,6.41227 -102.499998,34.2857 -18.243301,22.27698 -15.894673,57.39036 -10.714286,85.71429 2.97968,16.2915 19.498666,27.78901 23.214287,43.92858 3.18008,13.81333 -3.503344,28.47799 -1.42857,42.49999 1.950692,13.18342 9.390577,24.98894 12.857147,37.85715 4.07497,15.12669 -336.79354,-207.27069 -5.35715,31.78572 3.08969,2.22851 12.5,37.49999 12.5,37.49999 -3.21429,35.71429 -11.42857,18.57143 -3.92857,44.28572 7.5,25.71428 17.85714,18.92857 12.5,41.42857 -5.35714,22.5 -25.000001,36.78571 -15.35714,63.21428 9.64285,26.42857 5.35714,29.64286 29.64285,31.07143 24.28572,1.42857 14.28572,11.07143 31.78572,-9.28571 17.5,-20.35715 -1.78572,-28.57143 25,-32.14286 C 221.42857,566.29075 220,544.14789 232.5,581.64789 c 12.5,37.5 -14.28571,62.14286 -2.5,90.71429 11.78572,28.57143 -8.92857,36.42857 34.28572,45 43.21428,8.57143 42.14285,13.21429 64.64285,-9.28571 22.5,-22.5 18.21429,-38.92857 57.14286,-30 38.92857,8.92857 43.57143,4.28571 50.35714,42.14285 6.78572,37.85715 -8.92857,19.28572 18.21429,36.78572 27.14286,17.5 87.85714,36.07143 100,41.07143 12.14286,5 10.35714,-8.92857 19.64286,7.14285 9.28571,16.07143 -0.71429,42.5 -16.07143,44.64286 -15.35714,2.14286 6.07143,3.92857 -21.78572,2.14286 -27.85714,-1.78572 -195,-3.21429 -210.71428,-1.42857 -15.71429,1.78571 -1.78572,9.64285 -17.5,-4.28572 -15.71429,-13.92857 -7.5,-16.78571 -27.5,-22.85714 -20,-6.07143 -22.88697,10.92961 -34.64286,8.92857 -22.58951,-3.84511 -36.12194,-17.36902 -57.14286,-38.21428 -14.64285,-14.28572 5,-11.07143 -20.35714,-17.5 -25.35714,-6.42858 -21.78572,-2.85715 -42.5,6.78571 -20.71429,9.64286 -20,20.35715 -41.785715,27.14286 -21.785715,6.78571 253.900275,107.3402 -60.000001,3.21428 -26.7879569,-8.88601 -37.142856,-1.07143 -41.071428,-33.57143 -3.928572,-32.5 109.870949,-408.49616 0.357142,-112.85714 -40.784711,110.10074 17.8571435,-27.5 15.71428629,-48.21429 -2.14285619,-20.71428 -5.71428579,-19.28571 -5.71428579,-35.71428 0,-16.42857 12.1428573,-5.35714 12.1428573,-29.64286 0,-24.28571 -89.6987538,-73.03753 0,-58.57143 6.3155452,1.01854 -18.9285718,-29.64285 -18.9285718,-49.28571 0,-19.64286 20.3571434,-22.5 17.1428574,-43.57143 -3.21428569,-21.07143 -7.5,-12.5 -6.7857142,-32.85715 0.7142857,-20.35714 13.9285718,-14.28571 9.6428575,-37.14285 -4.2857147,-22.85715 -21.0714287,-15 -24.6428577,-44.64286 -3.571429,-29.64286 -7.5,-29.64286 -7.857143,-49.28572 -0.357143,-19.64285 -3.928571,-151.071422 -3.571428,-167.857136 0.357142,-16.785714 -2.857143,-4.285714 0.357142,-34.642857 3.214286,-30.3571434 6.428572,-48.571429 28.21428663,-42.5000006 21.78571437,6.07142863 25.35714237,2.5 48.57142837,7.5000001 23.214286,5 22.5,-7.8571429 35,0.3571428 12.5,8.2142858 13.571429,14.9999997 29.642857,18.5714287 16.07143,3.571429 28.57143,-4.642857 48.21429,2.5 19.64285,7.142857 7.14285,20 29.28571,25.357143 22.14286,5.357143 66.78572,9.642857 87.5,5.357143 20.71429,-4.285714 30.35714,-2.5 63.57143,-27.857143 33.21428,-25.35714307 47.14286,-46.428572 62.5,-52.142858 37.90209,-9.328337 74.78747,-4.82474 49.28571,28.5714289 -11.78571,15.0000001 -7.14285,16.0714291 -23.92856,25.7142861 -16.78572,9.642857 -34.64286,18.21429 -40.35715,27.5 -5.71429,9.285714 45.50758,-18.740623 -4.28572,25 -20.39223,17.913439 7.85715,169.642862 2.14286,200.000002 -5.71428,30.35715 -4.61231,37.93887 -3.85124,56.9505 z"
       inkscape:connector-curvature="0"
       sodipodi:nodetypes="aaaaaaaaaacccaaaaccaaaasscssssssssssssssssssssacssssssssssssssssssssssssssccssssa" />
  </g>
</svg>
