<?xml version="1.0" encoding="UTF-8" standalone="no"?>
<!-- Created with Inkscape (http://www.inkscape.org/) -->

<svg
   xmlns:dc="http://purl.org/dc/elements/1.1/"
   xmlns:cc="http://creativecommons.org/ns#"
   xmlns:rdf="http://www.w3.org/1999/02/22-rdf-syntax-ns#"
   xmlns:svg="http://www.w3.org/2000/svg"
   xmlns="http://www.w3.org/2000/svg"
   xmlns:xlink="http://www.w3.org/1999/xlink"
   xmlns:sodipodi="http://sodipodi.sourceforge.net/DTD/sodipodi-0.dtd"
   xmlns:inkscape="http://www.inkscape.org/namespaces/inkscape"
   width="500"
   height="500"
   viewBox="0 0 499.99998 500"
   id="svg2"
   version="1.1"
   inkscape:version="0.91 r13725"
   sodipodi:docname="ne_2015_autox.svg">
  <defs
     id="defs4">
    <inkscape:path-effect
       effect="spiro"
       id="path-effect3339"
       is_visible="true" />
  </defs>
  <sodipodi:namedview
     id="base"
     pagecolor="#ffffff"
     bordercolor="#666666"
     borderopacity="1.0"
     inkscape:pageopacity="0.0"
     inkscape:pageshadow="2"
     inkscape:zoom="1.4142136"
     inkscape:cx="48.986268"
     inkscape:cy="-553.36004"
     inkscape:document-units="px"
     inkscape:current-layer="layer3"
     showgrid="false"
     inkscape:window-width="1920"
     inkscape:window-height="1054"
     inkscape:window-x="0"
     inkscape:window-y="0"
     inkscape:window-maximized="1"
     fit-margin-top="0"
     fit-margin-left="0"
     fit-margin-right="0"
     fit-margin-bottom="0"
     units="px" />
  <metadata
     id="metadata7">
    <rdf:RDF>
      <cc:Work
         rdf:about="">
        <dc:format>image/svg+xml</dc:format>
        <dc:type
           rdf:resource="http://purl.org/dc/dcmitype/StillImage" />
        <dc:title />
      </cc:Work>
    </rdf:RDF>
  </metadata>
  <g
     inkscape:label="Layer 1"
     inkscape:groupmode="layer"
     id="layer1"
     transform="translate(-7.672732,-344.28811)"
     sodipodi:insensitive="true"
     style="display:inline">
    <image
       sodipodi:absref="/home/hughest1/Downloads/2015_FSAE Lincoln_AutoX.jpg"
       y="237.10497"
       x="-110.26668"
       id="image3406"
       xlink:href="file:///home/hughest1/Downloads/2015_FSAE%20Lincoln_AutoX.jpg"
       preserveAspectRatio="none"
       height="1446.686"
       width="898.97101" />
  </g>
  <g
     inkscape:groupmode="layer"
     id="layer3"
     inkscape:label="Layer 3">
    <path
       style="fill:none;fill-rule:evenodd;stroke:#000000;stroke-width:1px;stroke-linecap:butt;stroke-linejoin:miter;stroke-opacity:1"
       d="m 211.07135,664.5791 c -2.20758,18.3292 -0.69387,37.09866 4.42247,54.83721 1.67639,5.81211 3.75042,11.54785 6.77632,16.78568 3.0259,5.23782 7.04617,9.98127 12.10484,13.29801 7.74949,5.08099 17.48512,6.57805 25,12 3.91888,2.82746 7.04304,6.58995 10.34246,10.12068 3.29941,3.53072 6.92838,6.94068 11.40754,8.75432 5.26675,2.13254 11.15613,1.85062 16.8302,1.54841 5.67406,-0.30222 11.57043,-0.55517 16.81688,1.62684 4.83847,2.01233 8.61854,5.89049 12.20466,9.71148 3.58613,3.82098 7.24602,7.77839 11.97732,10.03116 5.05824,2.40844 10.85254,2.63407 16.45478,2.59951 5.60225,-0.0345 11.31768,-0.27138 16.68646,1.32943 6.35755,1.89563 11.68486,6.20573 16.62397,10.63484 4.93912,4.42912 9.76928,9.14493 15.68454,12.14853 5.28199,2.68205 11.19218,3.87006 17.06817,4.6221 5.87598,0.75204 11.81147,1.09896 17.62511,2.23666 18.07041,3.5363 34.09127,14.68979 45.77728,28.91942 8.62955,10.50789 15.23994,23.11265 16.46967,36.65417 0.91936,10.12375 -1.23622,20.45186 -5.76385,29.5533 -4.52764,9.10143 -11.38097,16.98064 -19.52473,23.06461 -7.87243,5.88127 -16.90871,10.09897 -26.2929,13.01471 -4.26912,1.32645 -8.62091,2.39148 -12.83339,3.8881 -4.21248,1.49662 -8.32342,3.45471 -11.72206,6.35886 -4.16356,3.55778 -7.1311,8.5164 -8.19298,13.88906 -1.06188,5.37266 -0.19007,11.12441 2.5101,15.88911 2.59223,4.5742 6.71813,8.105 11.15449,10.9266 4.43637,2.8217 9.23555,5.0185 13.836,7.5639 7.54094,4.1723 14.5566,9.2929 20.82932,15.2028 2.9325,4.8489 4.6184,10.4448 4.85254,16.1066 0.23414,5.6619 -0.98397,11.3778 -3.5061,16.4523 -4.23571,8.5222 -11.84726,14.8608 -19.75822,20.1509 -7.91096,5.2901 -16.37966,9.8333 -23.55207,16.0883 -7.91004,6.8983 -14.19077,16.135 -15.73313,26.5165 -0.96663,6.5063 -0.0308,13.2449 2.39124,19.3605 2.42206,6.1156 6.30195,11.6129 11.04379,16.1716 10.0017,9.6154 23.47937,14.9067 33.76435,24.2184 13.80815,12.5015 20.69108,31.7964 19.44544,50.3814 -1.31847,19.6716 -11.6289,38.6835 -27.75394,50.0278 -12.37735,8.7077 -27.64936,12.7856 -42.77996,13.0815 -8.84153,0.1729 -17.70174,-0.8856 -26.51651,-0.1768 -5.29418,0.4257 -10.51477,1.485 -15.77816,2.1965 -5.26339,0.7116 -10.64297,1.0719 -15.86486,0.1016 -5.89955,-1.0962 -11.35117,-3.8405 -16.61701,-6.7175 -4.45905,-2.4362 -9.06698,-5.0561 -14.14214,-5.3033 -2.89303,-0.1409 -5.76944,0.5082 -8.53475,1.3699 -2.76532,0.8617 -5.46311,1.9396 -8.25904,2.696 -5.91315,1.5998 -12.19906,1.7207 -18.208,0.5302 -7.03825,-1.3945 -13.59113,-4.5212 -20.15254,-7.4245 -9.01624,-3.9896 -18.26015,-7.6253 -27.93072,-9.546 -9.98062,-1.9823 -20.23123,-2.1025 -30.40558,-1.9445 -42.39562,0.6582 -84.70355,6.0203 -127.080357,4.5962 -4.340699,-0.1459 -8.726686,-0.3706 -12.897399,-1.5822 -4.170713,-1.2117 -8.161314,-3.5107 -10.635997,-7.0799 -2.171764,-3.1323 -3.035797,-7.1123 -2.505485,-10.8867 0.530313,-3.7745 2.421127,-7.3192 5.157135,-9.9729 3.496368,-3.3911 8.224891,-5.2795 13.013311,-6.1713 4.788421,-0.8919 9.693224,-0.8631 14.563853,-0.8998 60.150539,-0.4529 119.687599,-11.3083 179.605129,-16.617 8.45948,-0.7495 17.10113,-1.4296 24.91539,-4.7555 3.90712,-1.663 7.56644,-3.9931 10.48031,-7.0819 2.91386,-3.0888 5.05785,-6.9615 5.79326,-11.1436 0.97827,-5.5633 -0.60559,-11.4082 -3.73056,-16.1137 -3.12497,-4.7055 -7.69636,-8.3305 -12.70967,-10.9331 -10.21751,-5.3043 -22.00913,-6.4692 -33.47422,-7.5108 -11.4651,-1.0415 -23.25178,-2.1412 -33.52414,-7.3385 -9.60673,-4.8605 -17.46207,-13.4148 -20.68288,-23.6881 -3.23144,-10.3072 -1.72306,-21.5864 1.73579,-31.8195 3.45886,-10.2332 8.77454,-19.7179 13.35652,-29.4998 9.33767,-19.9347 15.63702,-41.1305 21.85402,-62.2476 4.05129,-13.7609 8.09341,-27.57635 10.28473,-41.75285 2.19132,-14.1765 2.48929,-28.81145 -0.91557,-42.74637 -5.21986,-21.36308 -19.3224,-40.32088 -38.03702,-51.87038 -18.71463,-11.54951 -41.78903,-15.66481 -63.4328,-11.76923 -21.95805,3.95215 -42.37907,16.11932 -56.120915,33.69594 -13.741845,17.57661 -20.629215,40.42394 -18.655626,62.64736 1.522001,17.13836 8.035715,33.41773 15.248909,49.03853 7.213193,15.6208 15.237911,30.9789 20.106432,47.4815 2.23666,7.5815 3.79917,15.4784 3.22881,23.3623 -0.57037,7.884 -3.44396,15.8021 -9.062448,21.3622 -3.738051,3.6992 -8.54689,6.2218 -13.612307,7.6355 -5.065417,1.4138 -10.387635,1.753 -15.638142,1.4541 -10.501015,-0.5977 -20.678601,-3.6915 -31.030399,-5.554 -12.622732,-2.2711 -25.511489,-2.7102 -38.1729429,-4.7544 -12.6614541,-2.0442 -25.4232891,-5.8827 -35.3661621,-13.984 -7.494391,-6.1063 -13.193934,-14.7937 -14.318913,-24.3951 -0.732452,-6.2513 0.477266,-12.6175 2.697089,-18.5072 2.219823,-5.8896 5.424445,-11.3549 8.793397,-16.6714 3.543445,-5.5919 7.303826,-11.0875 10.022826,-17.1234 2.718999,-6.0359 4.365857,-12.7416 3.412202,-19.2926 -0.810218,-5.56569 -3.424739,-10.67455 -5.480077,-15.9099 -2.974559,-7.57679 -4.826585,-15.89296 -3.181981,-23.86485 0.917939,-4.44953 2.882647,-8.60147 4.75333,-12.74169 1.870684,-4.14023 3.68271,-8.38482 4.262282,-12.89093 0.702955,-5.46539 -0.45415,-11.02158 -2.278002,-16.22141 -1.823851,-5.19983 -4.307146,-10.14081 -6.384056,-15.24484 -3.825218,-9.40052 -6.280059,-19.66202 -4.772971,-29.69849 1.814538,-12.08393 9.082228,-22.51708 15.556349,-32.88046 4.649367,-7.44242 9.097217,-15.45457 9.545942,-24.21841 0.33459,-6.53472 -1.603978,-12.99331 -4.238009,-18.983 -2.634031,-5.98968 -5.97165,-11.64729 -8.66669,-17.60978 -9.476852,-20.96651 -10.604185,-44.72101 -9.545941,-67.70547 0.912871,-19.82703 3.338158,-39.58425 7.247844,-59.04341"
       id="path3337"
       inkscape:path-effect="#path-effect3339"
       inkscape:original-d="m 211.07135,664.5791 c 6.8943,61.34152 -3.88603,45.64482 4.42247,54.83721 8.3085,9.19238 30.43904,35.46099 18.88116,30.08369 -285.208459,-132.69298 13,7 25,12 12,5 8.25,19.375 21.75,18.875 13.5,-0.5 12.14708,-12.82475 33.64708,3.17525 21.5,16 -3.31802,12.74264 24.18198,19.74264 27.5,7 22.64124,-1.57106 33.14124,3.92894 10.5,5.5 26.30851,19.28337 32.30851,22.78337 6,3.5 -4.30672,-12.64124 34.69328,6.85876 39,19.5 25.77728,11.41942 45.77728,28.91942 20,17.5 17.46967,29.65417 16.46967,36.65417 -1,7 -14.28858,41.11791 -25.28858,52.61791 -11,11.5 -10.7929,3.51471 -26.2929,13.01471 -15.5,9.5 -24.55545,-0.75304 -24.55545,10.24696 0,11 -13.18288,26.27817 -5.68288,29.77817 7.5,3.5 16.64031,12.3541 24.99049,18.4905 6.92657,5.0902 20.82932,15.2028 20.82932,15.2028 7.7104,23.72 14.78147,20.7148 1.34644,32.5589 -13.43503,11.844 -29.16815,19.9758 -43.31029,36.2392 -14.14214,16.2635 -15.02602,14.3189 -15.73313,26.5165 -0.7071,12.1976 -4.06586,26.5165 13.43503,35.5321 17.50089,9.0156 21.03643,4.0659 33.76435,24.2184 12.72792,20.1526 21.56676,37.4767 19.44544,50.3814 -2.12132,12.9047 -1.94454,38.8909 -27.75394,50.0278 -25.8094,11.1369 -25.63262,14.4957 -42.77996,13.0815 -17.14734,-1.4142 -6.01041,-5.1266 -26.51651,-0.1768 -20.50609,4.9497 -10.42982,8.6621 -31.64302,2.2981 -21.2132,-6.364 -6.71752,-5.8336 -16.61701,-6.7175 -9.8995,-0.8839 -4.77298,-7.2479 -14.14214,-5.3033 -9.36917,1.9445 0.17678,1.591 -16.79379,4.0659 -16.97056,2.4748 -12.21553,1.5092 -18.208,0.5302 -7.06524,-1.1542 -13.40622,-5.0293 -20.15254,-7.4245 -9.27194,-3.2919 -19.92751,-8.9107 -27.93072,-9.546 -4.77297,-0.1767 31.64304,-2.298 -30.40558,-1.9445 -31.02432,0.1768 -99.92304,2.961 -127.080357,4.5962 -27.15732,1.6352 -17.346212,-4.9498 -23.533396,-8.6621 -12.374325,-7.4247 1.06066,-11.3137 2.65165,-20.8596 1.59099,-9.546 10.429825,-5.8337 27.577164,-7.0711 17.147339,-1.2374 152.911849,-12.5511 179.605129,-16.617 26.69328,-4.0659 45.60838,-11.137 41.18896,-22.981 -4.41941,-11.844 3.18198,-25.6326 -16.44023,-27.0468 -19.62221,-1.4142 -46.84582,2.8284 -66.99836,-14.8493 -20.15255,-17.6777 -18.91511,-0.3536 -20.68288,-23.6881 -0.88389,-11.6672 6.54074,-36.4159 15.09231,-61.3193 8.55157,-24.9035 18.2301,-49.9616 21.85402,-62.2476 7.24784,-24.572 18.38478,-59.75048 9.36916,-84.49922 -9.01561,-24.74874 -39.4212,-78.31208 -101.46982,-63.63961 -62.048619,14.67246 -99.348502,21.2132 -74.776541,96.3433 24.571961,75.13013 28.637825,69.65003 35.355341,96.52003 6.71751,26.8701 13.08147,35.3554 -5.833638,44.7245 -18.915102,9.3692 -35.178557,10.4299 -60.280848,3.5356 -25.102291,-6.8943 -52.149125,-12.1976 -73.539105,-18.7384 -21.38998,-6.5407 -15.026019,0.7072 -14.318913,-24.3951 0.707107,-25.1023 1.414214,-12.728 11.490486,-35.1786 10.076271,-22.4506 18.915106,-21.0364 13.435028,-36.416 -5.480077,-15.37957 -1.237436,-1.0607 -5.480077,-15.9099 -4.242641,-14.84924 -9.369165,-6.0104 -3.181981,-23.86485 6.187185,-17.85445 8.131728,-14.49569 9.015612,-25.63262 0.883883,-11.13693 0,-17.14734 -8.662058,-31.46625 -8.662058,-14.31892 -4.772971,-17.5009 -4.772971,-29.69849 0,-12.19759 5.303301,-13.08147 15.556349,-32.88046 10.253049,-19.79899 14.3189126,-10.96016 9.545942,-24.21841 -4.772971,-13.25825 -0.883884,-9.72272 -12.904699,-36.59278 -12.020815,-26.87005 -9.545941,-38.18376 -9.545941,-67.70547 0,-29.52171 7.247844,-59.04341 7.247844,-59.04341"
       inkscape:connector-curvature="0"
       sodipodi:nodetypes="csssssssssssssssacssssssssssscsaacsssssssssssssssssssssssssssssssc" />
  </g>
</svg>
