<?xml version="1.0" encoding="UTF-8" standalone="no"?>
<!-- Created with Inkscape (http://www.inkscape.org/) -->

<svg
   xmlns:dc="http://purl.org/dc/elements/1.1/"
   xmlns:cc="http://creativecommons.org/ns#"
   xmlns:rdf="http://www.w3.org/1999/02/22-rdf-syntax-ns#"
   xmlns:svg="http://www.w3.org/2000/svg"
   xmlns="http://www.w3.org/2000/svg"
   xmlns:sodipodi="http://sodipodi.sourceforge.net/DTD/sodipodi-0.dtd"
   xmlns:inkscape="http://www.inkscape.org/namespaces/inkscape"
   width="210mm"
   height="297mm"
   viewBox="0 0 744.09448819 1052.3622047"
   id="svg12497"
   version="1.1"
   inkscape:version="0.91 r13725"
   sodipodi:docname="mi_2018_endurance.svg">
  <defs
     id="defs12499" />
  <sodipodi:namedview
     id="base"
     pagecolor="#ffffff"
     bordercolor="#666666"
     borderopacity="1.0"
     inkscape:pageopacity="0.0"
     inkscape:pageshadow="2"
     inkscape:zoom="0.7"
     inkscape:cx="632.5299"
     inkscape:cy="428.37817"
     inkscape:document-units="px"
     inkscape:current-layer="layer1"
     showgrid="false"
     inkscape:window-width="1920"
     inkscape:window-height="1036"
     inkscape:window-x="0"
     inkscape:window-y="0"
     inkscape:window-maximized="1" />
  <metadata
     id="metadata12502">
    <rdf:RDF>
      <cc:Work
         rdf:about="">
        <dc:format>image/svg+xml</dc:format>
        <dc:type
           rdf:resource="http://purl.org/dc/dcmitype/StillImage" />
        <dc:title></dc:title>
      </cc:Work>
    </rdf:RDF>
  </metadata>
  <g
     inkscape:label="Layer 1"
     inkscape:groupmode="layer"
     id="layer1">
    <path
       style="fill:none;fill-rule:evenodd;stroke:#000000;stroke-width:1px;stroke-linecap:butt;stroke-linejoin:miter;stroke-opacity:1"
       d="m -499.01536,632.39128 c 1.73113,50.50069 21.71828,56.06347 36.11296,55.81093 14.39467,-0.25254 16.92005,-11.61675 31.8198,-11.61675 14.89975,0 21.97082,11.61675 36.36549,10.35406 14.39468,-1.26269 38.13326,-2.77792 53.28555,-9.34391 15.15229,-6.56599 18.43528,-6.31345 33.84011,-6.31345 15.40483,0 74.24621,0.50507 93.94419,1.01015 19.69797,0.50508 21.46574,6.06091 42.67894,6.31345 21.2132,0.25254 29.7995,3.283 41.92133,6.81853 12.12183,3.53554 22.72843,0 44.446714,-9.34391 21.71828,-9.34391 35.355339,-12.12183 57.831234,-0.50508 22.4758937,11.61676 27.02158014,12.12184 59.093923,12.37437 32.072344,0.25254 47.47717,-2.27284 83.085049,-10.35406 35.60788,-8.08122 49.49747,-8.83883 60.35661,-3.53553 10.85914,5.3033 20.96067,4.54568 33.58758,0.25253 12.6269,-4.29314 21.2132,-4.04061 32.07234,0.75762 10.85914,4.79822 22.47589,3.78807 32.07234,-0.50508 9.59645,-4.29315 24.74874,-6.81853 34.59773,4.04061 9.84898,10.85914 16.92005,16.92006 30.30457,14.39468 13.38452,-2.52539 28.52703,-3.92069 56.06347,-22.4759 18.66644,-12.57823 37.29242,-20.34472 48.73986,-20.20305 13.82411,0.17109 25.96861,7.26354 56.56854,18.94036 19.2918,7.36168 37.63621,11.91864 44.19418,10.85914 7.62683,-1.23218 16.8509,-6.55549 21.71828,-13.13198 6.87969,-9.29539 22.47589,-12.87945 31.06219,-9.34391 8.58629,3.53553 25.94617,19.38083 36.61803,22.98097 20.96066,7.07107 31.31473,-10.35407 44.95178,-14.64721 13.63706,-4.29315 28.53681,4.04061 39.39595,10.35406 10.85914,6.31345 20.20306,5.3033 35.35534,-2.02031 15.15229,-7.3236 28.03174,-3.78807 36.87057,-8.33375 8.83884,-4.54569 10.35406,-5.30331 25.25381,-4.79823 14.89976,0.50508 127.7843,-1.76777 154.80588,4.79823 27.02158,6.56599 38.63832,13.63706 52.27542,13.63706 13.637,0 35.6079,-4.54569 44.4467,4.04061 8.8388,8.58629 15.9099,12.6269 33.0825,14.14213 17.1726,1.51523 24.7487,3.53553 32.8299,10.85914 8.0813,7.32361 17.9303,8.83884 32.5775,4.54569 14.6472,-4.29315 18.4352,-0.25254 27.5266,5.55584 9.0914,5.80837 13.8896,3.28299 17.1726,-6.566 3.283,-9.84898 8.3338,-47.22463 15.4048,-53.033 7.0711,-5.80838 15.6574,-8.33376 24.2437,1.51522 8.5863,9.84899 10.3541,16.92006 31.3147,33.84012 20.9607,16.92005 31.3148,19.95051 53.2856,24.24366 21.9708,4.29314 39.1434,9.34391 66.165,18.94036 27.0215,9.59645 38.3858,9.84898 43.4365,4.79822 5.0508,-5.05076 0.5051,-14.89975 2.5254,-22.72843 2.0203,-7.82868 7.2549,-11.99208 18.9404,-8.83884 15.9098,4.29315 38.1332,22.98097 51.5177,24.24366 13.3845,1.26269 20.2031,-5.80837 36.113,0.50508 15.9099,6.31345 20.4556,17.42514 32.5774,21.21321 12.1218,3.78807 16.9951,-1.33021 27.5267,1.01015 18.1827,4.04061 21.9708,20.70812 55.8109,30.80965 33.8401,10.10153 45.7094,14.64721 64.3972,5.05076 15.2629,-7.83773 19.9505,-37.88072 15.4049,-58.08377 -4.5457,-20.20305 -21.9709,-40.91118 -37.3757,-42.67894 -15.4048,-1.76777 -33.0818,9.38327 -72.2259,10.10152 -27.5266,0.50508 -51.5178,-8.83884 -63.6396,-20.70812 -10.8099,-10.58475 13.3845,-39.39595 -1.2627,-44.95179 -12.7156,-4.82315 -16.1624,13.38452 -29.547,15.9099 -13.3845,2.52538 -18.9403,0.75761 -42.9314,-11.36422 -23.9912,-12.12183 -47.2247,-10.85914 -86.8732,-5.55584 -39.6484,5.3033 -54.0431,-1.76776 -75.2563,-3.28299 -21.2132,-1.51523 -31.5673,-13.38452 -45.962,-20.96067 -14.3946,-7.57614 -30.052,-9.09137 -61.8718,-5.55584 -31.8198,3.53554 -152.7856,16.03618 -210.4905,-4.0406 -34.62409,-12.04645 -51.89663,-21.21321 -57.19993,-1.76777 -3.0681,11.24971 -10.6066,20.20305 -44.69925,14.39467 -34.09265,-5.80838 -32.07235,-6.81853 -36.11296,-14.89975 -4.04061,-8.08122 -6.06091,-12.12183 -37.37564,-7.32361 -31.31473,4.79823 -67.93276,14.64722 -91.41881,5.05077 -23.48604,-9.59645 -31.441,-13.25825 -47.60344,-4.16688 -16.16244,9.09137 -26.13769,11.23794 -42.30013,1.89403 -16.16244,-9.34391 -25.43568,-10.59269 -56.06347,-3.6618 -33.51358,7.58394 -42.93148,8.9651 -51.77032,3.6618 -8.83883,-5.3033 -13.83736,-6.78494 -26.01142,-0.25253 -10.35407,5.55583 -19.64874,5.99984 -28.66308,1.01014 -12.25251,-6.78211 -20.18684,-6.08303 -36.7443,0.37881 -20.74068,8.09442 -11.49049,-5.93464 -41.41626,-5.93464 -35.87463,0 -47.22463,9.34391 -78.53936,10.35406 -31.31473,1.01016 -100.0051,4.79823 -131.57237,1.01016 -31.56726,-3.78808 -26.5165,-5.55584 -41.92133,-4.29315 -15.40482,1.26269 -18.94036,-0.25254 -37.62818,-8.33376 -18.68782,-8.08122 -38.147726,-14.25229 -50.002551,3.28299 -6.060915,8.96511 -8.331709,18.70819 -15.783633,18.30902 -7.816288,-0.41869 -11.869292,-8.83884 -18.814091,-14.77348 -11.995766,-10.25091 -31.062191,-14.64721 -40.4061021,-0.25254 -9.34391104,14.39467 -11.8692924,16.66752 -21.2132039,14.89975 -9.34391,-1.76777 -17.930208,-6.81853 -30.809652,-11.86929 -24.909064,-9.76825 -32.57742,-12.62691 -55.55839,-7.57615 -22.980967,5.05077 -28.284267,8.33376 -53.285547,1.76777 -25.00128,-6.56599 -27.02158,-7.32361 -38.89087,-1.51523 -11.8693,5.80838 -16.16244,8.33376 -30.05204,1.76777 -13.8896,-6.56599 -21.46574,-5.05076 -33.84011,-1.26269 -12.37437,3.78807 -10.69665,6.19926 -28.53681,0.25254 -18.18275,-6.06092 -25.50635,-5.05077 -46.46702,6.81853 -21.42775,12.13379 -26.88013,9.85627 -52.78047,12.37436 -18.18275,1.76777 -33.84011,-0.25253 -45.45686,-21.2132 -16.43724,-29.65849 -66.81318,-15.44164 -70.45814,12.87945 -0.47034,3.65449 -0.88636,25.03363 -0.75762,28.78934 z"
       id="path58951"
       inkscape:connector-curvature="0"
       sodipodi:nodetypes="sssssssssssssssssssssssssssssssssssssssssssssssssssssssssssssssssssssssssssssssssssssssssssssssssss" />
  </g>
</svg>
