<?xml version="1.0" encoding="UTF-8" standalone="no"?>
<!-- Created with Inkscape (http://www.inkscape.org/) -->

<svg
   xmlns:dc="http://purl.org/dc/elements/1.1/"
   xmlns:cc="http://creativecommons.org/ns#"
   xmlns:rdf="http://www.w3.org/1999/02/22-rdf-syntax-ns#"
   xmlns:svg="http://www.w3.org/2000/svg"
   xmlns="http://www.w3.org/2000/svg"
   xmlns:sodipodi="http://sodipodi.sourceforge.net/DTD/sodipodi-0.dtd"
   xmlns:inkscape="http://www.inkscape.org/namespaces/inkscape"
   width="744.09448"
   height="1052.3622"
   viewBox="0 0 744.09449 1052.3622"
   id="svg4977"
   version="1.1"
   inkscape:version="0.91 r13725"
   sodipodi:docname="mi_2018_autox.svg">
  <defs
     id="defs4979" />
  <sodipodi:namedview
     id="base"
     pagecolor="#ffffff"
     bordercolor="#666666"
     borderopacity="1.0"
     inkscape:pageopacity="0.0"
     inkscape:pageshadow="2"
     inkscape:zoom="1.4"
     inkscape:cx="617.25932"
     inkscape:cy="528.00215"
     inkscape:document-units="px"
     inkscape:current-layer="layer3"
     showgrid="false"
     units="px"
     inkscape:window-width="1920"
     inkscape:window-height="1036"
     inkscape:window-x="0"
     inkscape:window-y="0"
     inkscape:window-maximized="1" />
  <metadata
     id="metadata4982">
    <rdf:RDF>
      <cc:Work
         rdf:about="">
        <dc:format>image/svg+xml</dc:format>
        <dc:type
           rdf:resource="http://purl.org/dc/dcmitype/StillImage" />
        <dc:title></dc:title>
      </cc:Work>
    </rdf:RDF>
  </metadata>
  <g
     inkscape:groupmode="layer"
     id="layer3"
     inkscape:label="Layer 2">
    <path
       style="fill:none;fill-rule:evenodd;stroke:#000000;stroke-width:1px;stroke-linecap:butt;stroke-linejoin:miter;stroke-opacity:1"
       d="m 403.17414,514.18988 c 60.10408,-2.52538 60.35661,-9.09137 72.98352,-13.38452 12.62691,-4.29315 18.94036,-2.52538 29.29442,1.76777 10.35407,4.29315 13.63706,0.25254 43.43656,-2.52538 29.7995,-2.77792 53.39663,4.82577 68.38137,15.16498 11.1318,7.68074 24.36333,9.7031 30.10851,-0.51777 8.03462,-14.29388 13.75424,-20.61321 26.86884,-20.42758 11.524,0.16311 16.39337,5.00416 26.32216,16.48632 5.23414,6.05303 18.41697,7.06128 23.65981,-1.1454 15.27848,-23.91556 27.7454,-20.83957 41.84211,-14.61131 41.17663,18.19282 96.28814,17.37325 113.54935,19.53209 33.83779,4.23204 55.15882,-15.15229 70.56364,-20.45559 15.40483,-5.3033 26.65437,-4.60433 40.0389,7.77004 13.38447,12.37437 16.85347,12.00716 37.98267,11.3362 18.1894,-0.57761 52.8006,-1.08893 69.7005,-5.03282 11.0696,-2.58328 19.8819,-8.00987 32.2562,-9.27256 12.3744,-1.26269 20.4716,15.53386 41.2784,5.65781 14.1291,-6.70645 16.5246,-6.22743 34.5518,1.07143 16.2954,6.59772 38.0186,-5.00744 60.2419,-8.29044 22.2234,-3.28299 33.7023,1.21937 46.3292,8.0379 12.6269,6.81853 27.7517,6.73253 38.6383,-1.51523 13.4178,-10.16543 20.8942,-8.72353 35.7812,-2.38008 29.2747,12.47417 43.6299,8.38498 74.0728,3.89531 19.1512,-2.82438 28.554,-5.4132 45.0053,-6.04823 11.2363,-0.43373 19.6043,3.90527 23.18,10.34138 3.7882,6.81853 10.9876,12.07294 22.5858,12.86675 20.6023,1.41008 32.6584,1.86975 48.1936,-2.08158 9.4187,-2.39561 13.55,-6.97619 11.2955,-16.59355 -2.8112,-11.99185 -2.7267,-19.38679 8.5636,-18.19807 11.0961,1.16829 45.1826,10.07309 63.7109,10.87446 17.8103,0.77031 24.2358,3.61214 34.266,11.58875 9.2244,7.33579 12.5122,17.0553 32.8759,13.26197 21.6121,-4.02591 36.6027,12.52493 39.3806,34.24321 2.7779,21.71828 -5.9245,30.51092 -17.6776,38.13326 -8.4918,5.50725 -23.646,1.90868 -34.8704,-0.0587 -5.7549,-1.0087 -9.9255,-5.05038 -10.885,-8.67821 -1.2558,-4.74828 -9.5505,-9.56582 -20.4096,-12.09119 -17.4798,-4.06507 -66.3514,-9.50191 -82.833,-0.0508 -12.5868,7.21775 -18.8765,7.37174 -32.0084,2.32098 -13.132,-5.05076 -25.4805,-3.39504 -34.6918,4.4923 -9.089,7.78252 -20.0973,7.70224 -33.557,2.19624 -24.3513,-9.96147 -85.3579,1.01016 -104.0457,-2.77792 -18.6878,-3.78807 -35.6078,-9.34391 -49.4974,-13.38452 -13.8896,-4.04061 -18.4866,-1.5056 -36.113,7.07107 -31.9327,15.5379 -40.3278,17.04942 -72.731,3.03046 -29.5213,-12.77216 -47.4771,-14.64721 -73.9936,-0.50508 -26.5165,14.14214 -120.7133,22.22336 -147.7348,21.71828 -27.0216,-0.50507 -79.13318,-10.82209 -91.41884,-15.40483 -15.9099,-5.93464 -21.71828,-2.77791 -32.32488,1.51524 -10.6066,4.29314 -17.42513,4.29314 -29.7995,-0.50508 -12.37437,-4.79823 -21.46574,-4.79823 -33.84011,0 -12.37437,4.79822 -16.16244,6.31345 -30.30458,-1.01015 -14.14213,-7.32361 -16.66751,-6.06092 -52.52793,3.28299 -35.86041,9.34391 -41.79507,17.17259 -86.24177,11.23795 -42.045,-5.61395 -135.73925,5.93465 -135.73925,5.93465"
       id="path12476"
       inkscape:connector-curvature="0"
       sodipodi:nodetypes="csssssssssssssssssssssssssssssssssssssssssssssssssssssc" />
  </g>
</svg>
