<?xml version="1.0" encoding="UTF-8" standalone="no"?>
<!-- Created with Inkscape (http://www.inkscape.org/) -->

<svg
   xmlns:dc="http://purl.org/dc/elements/1.1/"
   xmlns:cc="http://creativecommons.org/ns#"
   xmlns:rdf="http://www.w3.org/1999/02/22-rdf-syntax-ns#"
   xmlns:svg="http://www.w3.org/2000/svg"
   xmlns="http://www.w3.org/2000/svg"
   xmlns:xlink="http://www.w3.org/1999/xlink"
   xmlns:sodipodi="http://sodipodi.sourceforge.net/DTD/sodipodi-0.dtd"
   xmlns:inkscape="http://www.inkscape.org/namespaces/inkscape"
   width="744.09448"
   height="1052.3622"
   viewBox="0 0 744.09449 1052.3622"
   id="svg4235"
   version="1.1"
   inkscape:version="0.91 r13725"
   sodipodi:docname="ne_2015_endurance.svg">
  <defs
     id="defs4237" />
  <sodipodi:namedview
     id="base"
     pagecolor="#ffffff"
     bordercolor="#666666"
     borderopacity="1.0"
     inkscape:pageopacity="0.0"
     inkscape:pageshadow="2"
     inkscape:zoom="0.98994949"
     inkscape:cx="540.81164"
     inkscape:cy="883.80598"
     inkscape:document-units="px"
     inkscape:current-layer="layer1"
     showgrid="false"
     units="px"
     inkscape:window-width="1920"
     inkscape:window-height="1036"
     inkscape:window-x="0"
     inkscape:window-y="0"
     inkscape:window-maximized="1" />
  <metadata
     id="metadata4240">
    <rdf:RDF>
      <cc:Work
         rdf:about="">
        <dc:format>image/svg+xml</dc:format>
        <dc:type
           rdf:resource="http://purl.org/dc/dcmitype/StillImage" />
        <dc:title></dc:title>
      </cc:Work>
    </rdf:RDF>
  </metadata>
  <g
     inkscape:label="Layer 1"
     inkscape:groupmode="layer"
     id="layer1">
    <image
       sodipodi:absref="/home/hughest1/Downloads/FSAE_Lincoln_Endurance.jpg"
       xlink:href="/home/hughest1/Downloads/FSAE_Lincoln_Endurance.jpg"
       width="824"
       height="1107.7902"
       preserveAspectRatio="none"
       id="image4305"
       x="-131.94284"
       y="-212.24652" />
    <path
       style="fill:none;fill-rule:evenodd;stroke:#000000;stroke-width:1px;stroke-linecap:butt;stroke-linejoin:miter;stroke-opacity:1"
       d="m 380.71429,357.36218 c -3.70667,28.81127 2.99456,46.14014 28.70884,55.42586 25.71429,9.28571 54.44416,2.02773 77.30131,21.31345 22.85714,19.28571 85.41842,69.57414 85.41842,101.11783 0,37.85715 -15.41842,49.53826 -35.41842,58.10969 -20,8.57143 -39.83412,7.2654 -53.40555,-2.02031 -13.57143,-9.28572 -25.55584,-31.68854 -48.41298,-45.97425 -22.85715,-14.28572 -45.05238,1.06731 -66.8334,-8.60733 -41.85048,-18.58905 -39.65042,-58.09263 -69.58774,-63.10225 -17.92828,-3.00006 -27.77792,15.38252 -48.2471,9.06907 -15.69879,-4.84209 -20.94452,-15.50508 -20.94452,-29.0765 0,-11.87522 29.52102,-188.0801 29.87498,-246.75103 0.0505,-8.38034 -7.02388,-30.01494 -8.25206,-32.7662 -11.20142,-25.09244 -21.63036,-40.30946 -56.63036,-53.1666 -35,-12.85714 -60.71428,-5.71429 -80.71428,7.14286 -20.000001,12.85714 -34.1124,35.29586 -40.540972,57.43872 -6.428571,22.14286 -3.109681,51.97697 9.747462,74.83412 12.857143,22.85714 13.803223,25.49777 11.918779,48.70142 -0.723179,8.90469 3.007287,28.19348 7.532821,36.58702 3.45416,6.40645 4.77797,24.82769 3.14557,33.44143 -1.48145,7.81726 -1.20725,24.04862 4.29315,37.15029 3.79456,9.03844 5.49021,25.12256 3.98241,35.24511 -1.89715,12.73645 -3.17714,27.82967 2.78536,45.01487 5.81624,16.76368 7.28296,32.43446 -1.02502,58.33375 -4.91335,15.31689 -8.49961,29.68847 1.7034,45.281 8.34526,12.75346 28.50989,17.01055 44.62492,7.11313 7.45975,-4.58158 12.30874,-18.61476 19.76848,-26.66624 17.17716,-18.53971 44.74746,-12.29387 54.03318,11.27756 9.28571,23.57143 -5.82994,34.92112 -5.67095,72.8856 0.0792,18.91678 21.08959,60.34568 60.29586,56.55112 26.91135,-2.6046 39.29315,-13.49964 47.56128,-23.27556 14.48397,-17.12529 56.91221,-31.31743 82.59717,0.72172 11.02374,13.7509 14.89211,41.08316 34.56798,58.09609 38.95991,33.68703 87.98713,37.62563 103.13815,42.87074 20.89855,7.23484 28.46442,21.98691 21.75009,36.60429 -4.04941,8.81575 -0.82334,11.83954 -15.84147,12.42888 -40.1833,1.57686 -187.42486,2.81953 -234.14225,-0.28671 -8.10186,-0.53869 -24.44271,-2.79019 -31.39872,-11.36594 -11.59797,-14.29861 -21.94108,-18.94651 -39.79822,-10.37508 -17.85714,8.57142 -36.45703,12.10695 -52.17132,-9.32162 -15.71428,-21.42857 -25.71428,-48.57143 -60,-41.42857 -34.28571,7.14286 -29.89944,23.80314 -59.88488,35.25254 C 52.229515,824.2884 18.145794,816.1697 -4.1631622,794.20918 -27.525724,771.21151 -31.114669,748.78694 -27.308738,709.36762 -24.076505,675.89029 6.7194952,639.59241 -2.3161719,608.74615 -11.097128,578.76943 -2.0264636,570.69031 6.5449654,546.4046 15.116393,522.11888 10.056922,500.34804 -1.3716505,483.20518 -12.800222,466.06232 -19.320697,452.71741 -10.533537,435.37777 -1.6855825,417.91816 8.1889046,403.29184 2.005437,386.37306 -6.6078201,362.80605 0.34417384,358.85802 4.2287935,343.6818 7.6269068,330.40623 7.6925242,317.72705 -5.7873507,301.48817 -18.651927,285.99054 -26.428571,281.95608 -25,241.2418 -23.571429,200.52751 -39.706566,48.085342 -21.428571,11.647896 -4.0922655,-22.912279 27.502397,2.9056144 62.5,2.3621815 91.108633,1.9179547 99.898581,12.559127 117.14286,18.076467 c 18.27296,5.846471 39.68721,0.152312 61.07143,17.500001 31.12106,25.246585 62.5,28.035714 94.82143,21.071428 18.77337,-4.045092 43.7672,-18.946188 74.78969,-39.868484 30.04474,-20.2628832 50.81905,-46.95154 72.71031,-50.667231 31.27216,-5.307949 43.39285,30.8928576 20.71428,50.714286 -25.65787,22.425392 -58.39285,18.392857 -58.92857,69.285715 -0.52533,49.905308 2.09953,242.438728 -1.60714,271.249998 z"
       id="path4850"
       inkscape:connector-curvature="0"
       sodipodi:nodetypes="zssssssssssssssssssssssssssssssssssssssssssssssssssssssssssssz" />
  </g>
</svg>
