<?xml version="1.0" encoding="UTF-8" standalone="no"?>
<!-- Created with Inkscape (http://www.inkscape.org/) -->

<svg
   xmlns:dc="http://purl.org/dc/elements/1.1/"
   xmlns:cc="http://creativecommons.org/ns#"
   xmlns:rdf="http://www.w3.org/1999/02/22-rdf-syntax-ns#"
   xmlns:svg="http://www.w3.org/2000/svg"
   xmlns="http://www.w3.org/2000/svg"
   xmlns:xlink="http://www.w3.org/1999/xlink"
   xmlns:sodipodi="http://sodipodi.sourceforge.net/DTD/sodipodi-0.dtd"
   xmlns:inkscape="http://www.inkscape.org/namespaces/inkscape"
   width="500"
   height="500"
   viewBox="0 0 499.99998 500"
   id="svg2"
   version="1.1"
   inkscape:version="0.91 r13725"
   sodipodi:docname="ne_2015_autox.svg">
  <defs
     id="defs4" />
  <sodipodi:namedview
     id="base"
     pagecolor="#ffffff"
     bordercolor="#666666"
     borderopacity="1.0"
     inkscape:pageopacity="0.0"
     inkscape:pageshadow="2"
     inkscape:zoom="1"
     inkscape:cx="150.7842"
     inkscape:cy="-558.48321"
     inkscape:document-units="px"
     inkscape:current-layer="layer2"
     showgrid="false"
     inkscape:window-width="1920"
     inkscape:window-height="1036"
     inkscape:window-x="0"
     inkscape:window-y="0"
     inkscape:window-maximized="1"
     fit-margin-top="0"
     fit-margin-left="0"
     fit-margin-right="0"
     fit-margin-bottom="0"
     units="px" />
  <metadata
     id="metadata7">
    <rdf:RDF>
      <cc:Work
         rdf:about="">
        <dc:format>image/svg+xml</dc:format>
        <dc:type
           rdf:resource="http://purl.org/dc/dcmitype/StillImage" />
        <dc:title></dc:title>
      </cc:Work>
    </rdf:RDF>
  </metadata>
  <g
     inkscape:label="Layer 1"
     inkscape:groupmode="layer"
     id="layer1"
     transform="translate(-7.672732,-344.28811)"
     sodipodi:insensitive="true"
     style="display:inline">
    <image
       sodipodi:absref="/home/hughest1/Downloads/2015_FSAE Lincoln_AutoX.jpg"
       y="237.10497"
       x="-110.26668"
       id="image3406"
       xlink:href="file:///home/hughest1/Downloads/2015_FSAE%20Lincoln_AutoX.jpg"
       preserveAspectRatio="none"
       height="1446.686"
       width="898.97101" />
  </g>
  <g
     inkscape:groupmode="layer"
     id="layer2"
     inkscape:label="Layer 2"
     style="display:inline">
    <path
       style="fill:none;fill-rule:evenodd;stroke:#000000;stroke-width:5;stroke-linecap:butt;stroke-linejoin:miter;stroke-miterlimit:4;stroke-dasharray:none;stroke-opacity:1"
       d="m 211.99998,664.5 c 0,50 6.23362,81.83744 32.17678,91 12.43536,4.3919 20.0685,10.66427 25.30608,16.35939 7.4444,8.0947 13.02138,11.21297 26.15013,10.12284 12.55909,-1.04283 24.27509,5.18913 31.05672,12.42158 8.79147,9.37589 22.85649,12.46836 32.37853,11.81382 10.7523,-0.73911 24.16768,5.17816 31.59293,13.14113 16.43295,17.623 27.94974,9.98528 49.44974,17.48528 21.5,7.5 45.7028,24.42031 55.2028,41.42031 9.5,17 7.75557,40.92105 -2.27728,56.65849 -12.2035,19.14228 -25.3098,30.98731 -44.68657,33.78745 -24.48354,3.53811 -31.7595,16.65443 -31.88019,29.46128 -0.1727,18.32513 12.31997,21.78243 35.10571,31.73223 20.72848,9.0514 26.09877,30.3657 13.75852,48.8422 -6.7658,10.1302 -21.20135,18.3889 -34.65192,27.9611 -23.10343,16.4418 -24.25334,29.1972 -22.36848,43.9403 1.76491,13.805 15.01014,25.0117 27.98891,32.2616 15.55423,8.6885 27.55572,20.3218 33.56768,37.4495 7.19845,20.508 3.60412,44.2968 -6.65347,58.3746 -18.05092,24.7735 -45.17208,34.7307 -66.26687,31.2314 -22.90189,-3.7991 -28.7005,5.4391 -50.41942,2.8639 -13.23273,-1.569 -18.98883,-9.6557 -32.04073,-11.6724 -13.05191,-2.0167 -31.76961,11.5929 -61.92552,-7.6768 -30.15591,-19.2697 -161.49198,6.2098 -191.753415,-5.497 -16.391247,-6.341 -13.308885,-21.0302 -4.009515,-28.0281 9.29937,-6.9979 21.767136,-3.9164 50.90317,-5.9667 36.0943,-2.5399 143.76411,-6.0121 175.7387,-18.3002 18.68581,-7.1811 19.86459,-22.7322 16.03185,-34.2375 -5.58711,-16.7715 -22.2019,-17.4497 -52.64644,-20.9748 -28.93144,-3.35 -45.53837,-14.9822 -48.30851,-29.2227 -4.00141,-20.5702 8.19988,-48.2043 11.98008,-58.2522 14.01561,-37.2539 29.96597,-62.6059 36.08058,-111.37348 6.11461,-48.76758 -12.71542,-72.01032 -42.26345,-92.76345 -28.21081,-19.81392 -68.40405,-15.2742 -95.20191,1.78427 -26.797859,17.05848 -40.156111,52.05317 -40.817118,70.54074 -0.661008,18.48757 1.162058,31.3033 15.697592,62.85352 15.951498,34.6237 25.688916,57.7178 21.863066,75.02 -3.05545,13.818 -15.819385,23.4022 -29.399493,24.7365 -13.187264,1.2957 -97.256137,-13.5046 -112.979969,-22.2916 -15.723832,-8.7871 -20.729662,-30.8934 -10.745427,-49.3229 9.984235,-18.4295 27.788973,-36.5491 19.99963,-55.7628 -7.789343,-19.2137 -10.814506,-28.16713 -2.295942,-43.53731 10.798714,-19.48429 1.71348,-35.10126 -3.854185,-44.42031 -12.425105,-20.79691 -8.200706,-37.26532 3.154438,-51.8976 10.986963,-14.15784 21.763454,-31.24024 12.91295,-54.53973 -1.468183,-3.86508 -15.027329,-26.06169 -18.881728,-40.42641 -2.634048,-9.81667 -2.975295,-20.2165 -2.659902,-30.37552 0.687865,-22.15662 9.899495,-65.76093 9.899495,-65.76093"
       id="path4231"
       inkscape:connector-curvature="0"
       sodipodi:nodetypes="csssssssssssssssssssszzszsssssszszzssszzzssssaac" />
  </g>
</svg>
